<svg xmlns="http://www.w3.org/2000/svg" width="10.59in" height="2.27in" viewBox="0 0 762.49 163.8">
  <defs>
    <style>
      .cls-1, .cls-3, .cls-4, .cls-5 {
        fill: #fff;
      }

      .cls-1, .cls-3, .cls-4 {
        stroke: #fff;
      }

      .cls-1 {
        stroke-width: 1.05px;
      }

      .cls-2 {
        fill: none;
      }

      .cls-3 {
        stroke-miterlimit: 10;
      }

      .cls-3, .cls-4, .cls-7 {
        stroke-width: 0.75px;
      }

      .cls-6, .cls-7 {
        fill: #172544;
      }

      .cls-7 {
        stroke: #172544;
      }
    </style>
  </defs>
  <title>cca-logo-w</title>
  <g id="Logo">
    <g>
      <path class="cls-1" d="M86.32,103.14a59.2,59.2,0,0,1-15.16,6.58A59.87,59.87,0,0,1,55,112.06q-22.79,0-37.36-14.42T3,60.38Q3,38,17.78,23.47T55,8.89a56,56,0,0,1,17,2.47,48.62,48.62,0,0,1,14.41,7.43v7.35a55.1,55.1,0,0,0-14.71-8.53,44.68,44.68,0,0,0-15.68-2.73q-20.51,0-33.53,12.69t-13,32.81q0,20.12,12.79,32.9t32.38,12.79a52.66,52.66,0,0,0,16.53-2.67,57.24,57.24,0,0,0,15.23-7.68Z" transform="translate(-2.48 -2.71)"/>
      <path class="cls-1" d="M201.16,60.51A49.49,49.49,0,0,1,186,97.06q-15.17,15-36.84,15a50,50,0,0,1-36.58-15,49.59,49.59,0,0,1-15.1-36.55q0-22,14.84-36.81T149.16,8.89q22.07,0,37,14.81T201.16,60.51Zm-6.37,0q0-19.2-13.25-32.42T149.16,14.88A43.64,43.64,0,0,0,117,28.09q-13.14,13.22-13.14,32.42T117,92.89q13.13,13.19,32.19,13.18t32.38-13.21Q194.79,79.65,194.79,60.51Z" transform="translate(-2.48 -2.71)"/>
      <path class="cls-1" d="M325.19,110.76h-6.84l-9.7-80.26-36.77,82.67-37-82.67-9.7,80.26h-6.84L231.72,7.85l40.16,91.06,40-91.19Z" transform="translate(-2.48 -2.71)"/>
      <path class="cls-2" d="M572.32,60.51a49.5,49.5,0,0,1-15.17,36.55q-15.17,15-36.84,15a50,50,0,0,1-36.58-15,49.59,49.59,0,0,1-15.1-36.55q0-22,14.84-36.81T520.31,8.89q22.07,0,37,14.81T572.32,60.51Zm-6.38,0q0-19.2-13.25-32.42T520.31,14.88q-19,0-32.15,13.21T475,60.51q0,19.2,13.11,32.38t32.19,13.18q19.14,0,32.38-13.21T565.94,60.51Z" transform="translate(-2.48 -2.71)"/>
      <path class="cls-1" d="M451.42,110.76h-6.83l-9.7-80.26-36.78,82.67-37-82.67-9.7,80.26h-6.83L358,7.85l40.16,91.06,40-91.19Z" transform="translate(-2.48 -2.71)"/>
      <path class="cls-1" d="M684.42,113.17,602.48,24.38v86.38H596V7.85l82,88.65V10.26h6.37Z" transform="translate(-2.48 -2.71)"/>
      <path class="cls-1" d="M764.45,83.94q0,12.82-8.27,20.47t-21.87,7.65a29,29,0,0,1-16.6-4.79,27.29,27.29,0,0,1-10.35-13.44l5.47-2.8a22.33,22.33,0,0,0,8.43,11.07,23.49,23.49,0,0,0,13.57,4q10.81,0,17-5.89t6.21-16.24a19.59,19.59,0,0,0-5-13.41q-5-5.66-16.47-11.06Q722.33,52.83,716.93,47t-5.4-15.49q0-10.08,7-16.37t18.32-6.28A25.4,25.4,0,0,1,749,11.66a22.72,22.72,0,0,1,8.65,8.3l-5,3.64a17.59,17.59,0,0,0-6.83-6.47,20.06,20.06,0,0,0-9.57-2.25c-5.69,0-10.15,1.5-13.41,4.49s-4.88,7.12-4.88,12.37a16.23,16.23,0,0,0,3.19,10.32q3.2,4.06,11.32,8.42,2.15,1.17,6.51,3.32Q764.45,66.37,764.45,83.94Z" transform="translate(-2.48 -2.71)"/>
    </g>
    <g id="sillhouette">
      <g>
        <path class="cls-3" d="M556,75.18c-.28.3-.48.18-.84.3a27.73,27.73,0,0,1,1,2.87c-.71-.2-.75-.65-1.67-.55a3.67,3.67,0,0,1-.66.09c-.59-.2-.71-1.24-1.48-.84-1.55-2.65-4.38-4.65-5.76-7.71-.14-.32-.14-.65-.28-.94a12.7,12.7,0,0,0-1.3-1.76,9.55,9.55,0,0,1-1.3-1.77c-.45-1-.32-2.3-1.4-3,.1,3.18-.59,5.37-.37,8a10.06,10.06,0,0,0,2.7,5.48c.34.43,1.07.88,1.2,1.4a9.08,9.08,0,0,1,0,2A33,33,0,0,0,547,85.78c.31,1,.89,1.88.56,3-.26.22-.53-.11-.84.1-.85,1.17.74,1.7.56,2.6-.23,1.08-2.85.48-3.81.18.46-1.27,1.61-2.07,1.76-3.43a12.69,12.69,0,0,0-.09-2.33c-.24-3.4-1.88-5.83-3.25-8.46-.94-1.8-3.06-2.64-3.63-4.37a1.68,1.68,0,0,0-.74-.38c0-.87-.69-1-1-1.57a6.66,6.66,0,0,0-2.42,2.6,7.11,7.11,0,0,0,.93,3.72c.3.58,1.07,1.39,1,2-.07.86-2.64,2.42-3.25,3a11,11,0,0,0-3.72,5.38c-.29.25-.37-.3-.84-.18-.47.93.47,1.2.84,1.58a4.88,4.88,0,0,1-.28,1.49,6.31,6.31,0,0,1-2.88-.1,16.78,16.78,0,0,1,.84-4.36c.18-.73,1.85-2,2.51-2.78.93-1.11,2.33-2.44,2.14-4.28-.12-1-1-1.88-1.68-2.7-1.63-2.05-2.48-4.85-4.19-6.79a5,5,0,0,0-1.3.46c0,.37.24.73,0,1-.43,0-.44-.49-.65-.75-3.56,1.42-8.1.43-12.27.19a7.5,7.5,0,0,0-1,4.94c.14,1.26.74,2.49.84,3.7.05.75-.17,1.52-.1,2.25a21.21,21.21,0,0,0,.65,2.78c.34,1.36,1,2.17.66,3.44-1.05-.11-1.55.94-1.68,2a6.82,6.82,0,0,1-2.33-.18c.85-1.33,1.81-2.05,1.68-4.38a11.79,11.79,0,0,0-.74-3.43c-.14-.35-.43-.61-.56-.93-.86-2.18-1.08-4.46-2.23-5.77a1.32,1.32,0,0,0-1.12.28A12.24,12.24,0,0,1,503,73.7c.33-.54,1.58-.16,2.33-.27-.17-1.17-.85-1.82-.93-3.08-.56-.82-1.2-.82-2.79-.74-1.82.09-4.69-.29-5.95.09a15.6,15.6,0,0,0-1.67.94c-.61,1.68-1.46,3.79-.93,6,0,.37-.69-.11-.74.38-.16,1,.92.81,1.49,1.11.11.53.33,1,.46,1.49-.8.88-1.26,2.09-2.14,2.88a20.66,20.66,0,0,0-1.21-2.6c.25-1.28-.69-2.8-.65-3.91a11.94,11.94,0,0,1,.93-2.32,17.45,17.45,0,0,0,.74-2.51,14.48,14.48,0,0,1,.1-1.76c.91-3,5.28-2.41,7.62-4.19a13.1,13.1,0,0,1-.65-2.33c-.17-1.93.2-4.57-.74-5.87-.08,0-.46.24-.57.24-.38-.06-.73-.08-1.12-.16h.19a9.73,9.73,0,0,0,1.31-.06c0-.09-.07-.18-.1-.28h.06a5.9,5.9,0,0,1-.32-1.22.07.07,0,0,0,0,0c-.14-1-.16-2.22-.3-3.26,0-.15-.05-.3-.08-.45a1.7,1.7,0,0,0,0-.22,4.4,4.4,0,0,0-.4-1.16,3.45,3.45,0,0,0-.2-.32c-.33,1.54-.9,3.82.28,4.65.13.88-.6.89-.47,1.76-.12,0-.24.08-.37.12a.29.29,0,0,1,.07-.2c-.33,0-.36.1-.29.27l-.28.08a.68.68,0,0,1,0-.39h0a.36.36,0,0,0-.28.46,6.54,6.54,0,0,0-1.87.69c-.75-.27-1.17-.87-1.85-1.21-.77-2.58-.48-5.66-1.86-7.63-.27-.37-.79-.61-.94-1A11.84,11.84,0,0,1,488.8,46c-.06-.37-.28-.8-.37-1.2s0-.92-.09-1.22c-.39-1.14-1.82-1.6-1.58-3.07.41-.12,1.25,1.2,2.13,1.21.35,0,.56-.22.94-.37a15.18,15.18,0,0,0-1-2.23c1,.11,2,1.74,2.89,2,1.14.28,2.63-.44,3.81-.46a9.75,9.75,0,0,1,4.55,1.2,21.51,21.51,0,0,1,2.42,1.12c3,2,4.92,4.9,7.53,7.06,1.25.08,1.84-.52,2.79-.74.24-.86-.23-1.24-.37-2,.32-.9,1.47-.91,1.67-1.86.28-1.35-.82-2.91-.47-4.37.73,1,.6,2.81,1,4.09.56-.18.43-1.06.92-1.31a3.13,3.13,0,0,1,.66-3c.61-1,.94-1.91,1.86-2.41.07-.38-.14-.48-.09-.84a1.4,1.4,0,0,1-2-.75c-.17-.84.78-2.1.75-3.44a21.54,21.54,0,0,0-.56-2.41c.47-1.25,2.24-.54,3.34-.37a3.75,3.75,0,0,0,2.61,1.48c.4.73,1.36.87,1.58,1.78-.25.67-1.11.75-1.58,1.2a13.29,13.29,0,0,1,0,1.67c.58.19.9.65,1.39.93a14.7,14.7,0,0,1,.65,3.54c.18,2.54-1.31,4.93-1.2,6.78.07,1.32,1.15,2.05,1.67,3.16-.47,1.37,1,1.51.83,2.89,1.8.27,3.08-.59,5.11-.48A22.25,22.25,0,0,1,536.5,55a9.41,9.41,0,0,0,1.76.66c1.57.15,2.82-.83,4.09-.93,3.61-.3,5.87,2.65,7,5,.65,1.4.54,3,1.39,4.65.44.88,1.3,1.48,1.67,2.51.21.57.22,1.22.47,2,.85.88,2.17,2.2,1.76,3.72A13.92,13.92,0,0,0,556,75.18Zm-10.23,15c-.12,0-.13-.13-.28-.1,0,.42-.7,1-.28,1.31C545.6,91.15,545.5,90.45,545.79,90.16Zm-13-34.41c-.32.07-.12-.37-.46-.27-.14.12-.17.55.09.56C532.37,55.77,532.75,56,532.78,55.75Zm-.65-.08c-.18-.17-.69-.14-.56.27A1.71,1.71,0,0,0,532.13,55.67Zm-.66-.38c-.17,0-.2-.1-.36-.09-.06.41-.42-.27-.75-.19,0,.3-.1.21-.37.38.17.19.46.28.64.46C530.92,55.58,531.37,56,531.47,55.29Zm-3.71,30.59c.21-.35,1.35-1.21,1.11-1.67C528.58,84.84,528,85.14,527.76,85.88Zm-2.14-26.4c.19-.33.08-1-.28-1.12C525.37,58.8,525.38,59.26,525.62,59.48Zm-2.88-1.22h-.28c.09.32-.13.32-.37.29-.07.28.09.33.09.55C522.54,59,522.7,58.69,522.74,58.26Zm-.84-18.11c.06-.06.22-.46,0-.48a.14.14,0,0,1-.18.1C521.69,40,521.74,40.12,521.9,40.15Zm-.74,19.51c.26-.23.67-.71.37-1.21h-.28c.11.42-.29.34-.46.47A.88.88,0,0,0,521.16,59.66Zm.09,2.6a15.66,15.66,0,0,0-1.68-4.55A22.22,22.22,0,0,0,521.25,62.26Zm-1.86-29.65c.05-.44-.52-.25-.65-.09C519.09,32.44,519.18,32.82,519.39,32.61Zm-.84,26.69c.48,0,.58-.36.56-.85-.19-.22-.37.13-.56-.09ZM515,52.88c.09,0,.25-.41.09-.38s-.14.11-.27.1v.18C514.85,52.85,514.91,52.89,515,52.88Zm-.46-2.42a3.27,3.27,0,0,1-.1-.93,6.27,6.27,0,0,0-1.11.1v.65C513.64,50.42,514.19,50.69,514.56,50.46ZM514,49.34c.51.18.57-.4.37-.65C514,48.7,514,49,514,49.34Zm-.56,8.84c.33-.19.49-.74,0-.84Zm.09-3.63a.34.34,0,0,0-.46,0c0,.27,0,.51.28.46C513.27,54.72,513.43,54.66,513.53,54.55Zm-.56.08c0-.31-.22-.39-.37-.54C512.61,54.39,512.73,54.58,513,54.63Zm-.74-4.26c.32,0,.61-.07.56-.47C512.37,49.82,512.2,50,512.23,50.37Zm-1.11,8V57.8c-.36.14,0-.41-.38-.27,0,.28.07.68-.09.83.14,0,.23.15.37.19C511,58.24,510.89,58.09,511.12,58.36Zm-1,30.23c0-.13.43-.57,0-.57C510.22,88.29,509.84,88.49,510.09,88.59Zm-1.2-11.92c.16-.33-.15-.54-.47-.65C508.5,76.32,508.51,76.67,508.89,76.67ZM507.3,58.45c.12-.31-.62-.22-.64-.09C506.87,58.39,507,58.51,507.3,58.45Zm-4.74.76c0-.24.58-.29.28-.48C502.73,58.82,502.23,59,502.56,59.21ZM501,50c.11-.17.5-.06.38-.46-.3,0-.37-.14-.56-.19C501,49.63,500.83,49.74,501,50ZM494.1,67.67c-.05.43.5.21.47-.1C494.3,67.5,494.32,67.69,494.1,67.67ZM492.8,54c-.05.25.38.48.47.29-.38,0-.12-.57-.28-.37S492.91,54,492.8,54Z" transform="translate(-2.48 -2.71)"/>
        <path class="cls-4" d="M545.23,91.37c-.42-.3.24-.89.28-1.31" transform="translate(-2.48 -2.71)"/>
        <path class="cls-4" d="M532.32,55.48c.34-.1.14.34.46.27,0,.2-.41,0-.37.29C532.15,56,532.18,55.6,532.32,55.48Z" transform="translate(-2.48 -2.71)"/>
        <path class="cls-3" d="M531.57,55.94c-.13-.41.38-.44.56-.27A1.71,1.71,0,0,1,531.57,55.94Z" transform="translate(-2.48 -2.71)"/>
        <path class="cls-4" d="M531.11,55.2c.16,0,.19.11.36.09-.1.72-.55.29-.84.56-.18-.18-.47-.27-.64-.46.27-.17.37-.08.37-.38C530.69,54.93,531.05,55.61,531.11,55.2Z" transform="translate(-2.48 -2.71)"/>
        <path class="cls-4" d="M525.34,58.36c.36.08.47.79.28,1.12C525.38,59.26,525.37,58.8,525.34,58.36Z" transform="translate(-2.48 -2.71)"/>
        <path class="cls-4" d="M522.46,58.26h.28c0,.43-.2.75-.56.84,0-.22-.16-.27-.09-.55C522.33,58.58,522.55,58.58,522.46,58.26Z" transform="translate(-2.48 -2.71)"/>
        <path class="cls-4" d="M521.9,39.67c.22,0,.06.42,0,.48s-.21-.17-.18-.38A.14.14,0,0,0,521.9,39.67Z" transform="translate(-2.48 -2.71)"/>
        <path class="cls-4" d="M521.53,58.45c.3.5-.11,1-.37,1.21a.88.88,0,0,1-.37-.74c.17-.13.57-.05.46-.47Z" transform="translate(-2.48 -2.71)"/>
        <path class="cls-4" d="M519.57,57.71a15.66,15.66,0,0,1,1.68,4.55A22.22,22.22,0,0,1,519.57,57.71Z" transform="translate(-2.48 -2.71)"/>
        <path class="cls-4" d="M518.74,32.52c.13-.16.7-.35.65.09C519.18,32.82,519.09,32.44,518.74,32.52Z" transform="translate(-2.48 -2.71)"/>
        <path class="cls-4" d="M519.11,58.45c0,.49-.08.85-.56.85v-.94C518.74,58.58,518.92,58.23,519.11,58.45Z" transform="translate(-2.48 -2.71)"/>
        <path class="cls-4" d="M515.11,52.5c.16,0,0,.35-.09.38s-.17,0-.18-.1V52.6C515,52.61,515.1,52.61,515.11,52.5Z" transform="translate(-2.48 -2.71)"/>
        <path class="cls-4" d="M514.46,49.53a3.27,3.27,0,0,0,.1.93c-.37.23-.92,0-1.21-.18v-.65A6.27,6.27,0,0,1,514.46,49.53Z" transform="translate(-2.48 -2.71)"/>
        <path class="cls-4" d="M514.37,48.69c.2.25.14.83-.37.65C514,49,514,48.7,514.37,48.69Z" transform="translate(-2.48 -2.71)"/>
        <path class="cls-4" d="M513.44,57.34c.49.1.33.65,0,.84Z" transform="translate(-2.48 -2.71)"/>
        <path class="cls-4" d="M513.07,54.55a.34.34,0,0,1,.46,0c-.1.11-.26.17-.18.46C513.05,55.06,513.05,54.82,513.07,54.55Z" transform="translate(-2.48 -2.71)"/>
        <path class="cls-4" d="M512.6,54.09c.15.15.39.23.37.54C512.73,54.58,512.61,54.39,512.6,54.09Z" transform="translate(-2.48 -2.71)"/>
        <path class="cls-4" d="M512.79,49.9c.05.4-.24.45-.56.47C512.2,50,512.37,49.82,512.79,49.9Z" transform="translate(-2.48 -2.71)"/>
        <path class="cls-4" d="M511.12,57.8v.56c-.23-.27-.17-.12-.1.19-.14,0-.23-.14-.37-.19.16-.15.07-.55.09-.83C511.1,57.39,510.76,57.94,511.12,57.8Z" transform="translate(-2.48 -2.71)"/>
        <path class="cls-4" d="M508.42,76c.32.11.63.32.47.65C508.51,76.67,508.5,76.32,508.42,76Z" transform="translate(-2.48 -2.71)"/>
        <path class="cls-4" d="M506.66,58.36c0-.13.76-.22.64.09C507,58.51,506.87,58.39,506.66,58.36Z" transform="translate(-2.48 -2.71)"/>
        <path class="cls-4" d="M502.84,58.73c.3.19-.31.24-.28.48C502.23,59,502.73,58.82,502.84,58.73Z" transform="translate(-2.48 -2.71)"/>
        <path class="cls-4" d="M501.36,49.53c.12.4-.27.29-.38.46-.15-.25,0-.36-.18-.65C501,49.39,501.06,49.57,501.36,49.53Z" transform="translate(-2.48 -2.71)"/>
        <path class="cls-3" d="M498.29,57c.94,1.3.57,3.94.74,5.87-.17-1.93.15-4.41-.78-5.71-.25,0-.2.17-.75.21-.78.07-.47.05-1.69-.17a.51.51,0,0,1-.4-.4l.24-.07a.38.38,0,0,0,.25.32,2.41,2.41,0,0,0,.69,0h0c.39.08.74.1,1.12.16C497.83,57.28,498.21,57,498.29,57Z" transform="translate(-2.48 -2.71)"/>
        <path class="cls-3" d="M498,56.78c0,.1.07.19.1.28a9.73,9.73,0,0,1-1.31.06h-.2a2.62,2.62,0,0,1-.42-.11,1.16,1.16,0,0,1-.24-.32l.22-.07c0,.13.14.25.5.33s.37.2.9.09A.63.63,0,0,0,498,56.78Z" transform="translate(-2.48 -2.71)"/>
        <path class="cls-3" d="M498.06,56.77H498a7.2,7.2,0,0,1-.26-1.23A5.9,5.9,0,0,0,498.06,56.77Z" transform="translate(-2.48 -2.71)"/>
        <path class="cls-3" d="M497.43,52.24c.14,1,.16,2.21.3,3.26C497.57,54.45,497.56,53.29,497.43,52.24Z" transform="translate(-2.48 -2.71)"/>
        <path class="cls-3" d="M497.35,51.79a1.7,1.7,0,0,0,0-.22A1.7,1.7,0,0,1,497.35,51.79Z" transform="translate(-2.48 -2.71)"/>
        <path class="cls-3" d="M496.91,50.41a4.4,4.4,0,0,1,.4,1.16A4.4,4.4,0,0,0,496.91,50.41Z" transform="translate(-2.48 -2.71)"/>
        <path class="cls-3" d="M495.93,56.69c-.07-.17,0-.31.29-.27a.29.29,0,0,0-.07.2Z" transform="translate(-2.48 -2.71)"/>
        <path class="cls-3" d="M495.7,56.38h0Z" transform="translate(-2.48 -2.71)"/>
        <path class="cls-3" d="M495.65,56.77l-.24.07a.36.36,0,0,1,.28-.46A.68.68,0,0,0,495.65,56.77Z" transform="translate(-2.48 -2.71)"/>
        <path class="cls-4" d="M493.27,54.28c-.09.19-.52,0-.47-.29.11,0,.17,0,.19-.08S492.89,54.28,493.27,54.28Z" transform="translate(-2.48 -2.71)"/>
      </g>
      <path class="cls-3" d="M545.68,91.21a.31.31,0,1,1-.31-.3A.31.31,0,0,1,545.68,91.21Z" transform="translate(-2.48 -2.71)"/>
      <path class="cls-3" d="M545.73,90.11c0,.22-.07.41-.16.41s-.17-.19-.17-.41.08-.4.17-.4S545.73,89.89,545.73,90.11Z" transform="translate(-2.48 -2.71)"/>
      <polyline class="cls-3" points="525.1 83.34 525.12 82.93 525.46 82.34 526.04 81.81 526.45 81.41 526.78 81.62 526.43 82.29"/>
      <polyline class="cls-3" points="507.85 84.72 507.44 85.25 507.37 85.78 507.51 86.09 507.78 85.98"/>
      <polyline class="cls-3" points="491.44 65.39 491.53 64.89 491.85 64.71 492.29 64.62 492.21 65.21"/>
      <path class="cls-5" d="M502.08,50a3.86,3.86,0,0,0-.81-1.85,2.1,2.1,0,0,0-2.12-.46c-.1,0-.84.26-.62.49a50.59,50.59,0,0,0,4.2,3.82l0-.2a2.08,2.08,0,0,1,.83-.24l-.06,0-.12-.06a3.11,3.11,0,0,1-.28-.23c-.21-.19-.41-.39-.63-.56a2.13,2.13,0,0,0-1.76-.39,2.9,2.9,0,0,0-.55.17c-.08,0-.26.14-.29.24s.49.18.58.16.09,0,0,0,0,0,0,0l.14.05a1.5,1.5,0,0,1,.39.22,7,7,0,0,1,.72.61,1.42,1.42,0,0,0,.81.42,1.94,1.94,0,0,0,1.5-.47c.06-.05.1-.14,0-.2a50.61,50.61,0,0,1-4.19-3.82l-.62.49a.51.51,0,0,0-.17,0s.11,0,.12,0a1.23,1.23,0,0,1,.31.14,1.65,1.65,0,0,1,.53.49,4.46,4.46,0,0,1,.56,1.54c.06.24.66.09.79,0s.72-.2.66-.44Z" transform="translate(-2.48 -2.71)"/>
      <path class="cls-5" d="M492,53.6l.18.32-.06-.1a5.48,5.48,0,0,1,.47,1.18.39.39,0,0,0,.29.25,1.14,1.14,0,0,0,.45,0,1.12,1.12,0,0,0,.44-.17c.11-.08.27-.2.27-.35V52.84a.3.3,0,0,0-.16-.3.81.81,0,0,0-.48-.08,1.17,1.17,0,0,0-.55.19c-.1.08-.27.2-.27.34v1.89l1.45-.26a5.56,5.56,0,0,0-.7-1.62c-.07-.11-.28-.15-.4-.16a1.13,1.13,0,0,0-.57.1.79.79,0,0,0-.38.32.3.3,0,0,0,0,.34Z" transform="translate(-2.48 -2.71)"/>
      <path class="cls-5" d="M518,32.5a1.4,1.4,0,0,1,.42.42l0-.08a1.53,1.53,0,0,1,.23.83v-.08a1.09,1.09,0,0,1,0,.25l1.45-.3a1.8,1.8,0,0,0-.48-.86,2,2,0,0,0-.44-.32,2.16,2.16,0,0,0-.55-.21,1.29,1.29,0,0,0-.34,0,2.79,2.79,0,0,0-.39.1,2.28,2.28,0,0,0-.3.17.58.58,0,0,0-.15.19,1.34,1.34,0,0,1-.17.58l0-.09-.08.13a.19.19,0,0,0,0,.26.56.56,0,0,0,.38.09,1.42,1.42,0,0,0,.57-.12.9.9,0,0,0,.39-.25,1.77,1.77,0,0,0,.32-.82l-1.18.46h0l-.13,0a1.4,1.4,0,0,1,.4.16l-.09,0a1.58,1.58,0,0,1,.56.53l-.05-.07a1.41,1.41,0,0,1,.22.52c0,.1.19.15.27.16a1.31,1.31,0,0,0,.44,0,1.42,1.42,0,0,0,.45-.16c.1-.06.26-.15.28-.27A1.58,1.58,0,0,0,519.4,32a.65.65,0,0,0-.39-.1,1.81,1.81,0,0,0-.56.12.9.9,0,0,0-.4.26c0,.07-.11.19,0,.26Z" transform="translate(-2.48 -2.71)"/>
      <path class="cls-5" d="M521.27,39.37a5.79,5.79,0,0,1,0,1v-.07q0,.33-.12.66c-.06.26.45.19.59.17a2.21,2.21,0,0,0,.55-.18l.13-.07a.49.49,0,0,0,.16-.16,5.81,5.81,0,0,0,.15-1.76c0-.09-.21-.11-.26-.11a1.35,1.35,0,0,0-.53.06,1.83,1.83,0,0,0-.5.21c-.07.06-.17.12-.16.23Z" transform="translate(-2.48 -2.71)"/>
      <path class="cls-5" d="M513.85,48.56c0,.81.09,1.63.1,2.45v-.09s0,0,0,0l.23-.19,0,0,.36-.14h0l.38-.06a9.57,9.57,0,0,1-1.07,0h-.48c-.06,0,.08,0,0,0s0,0,0,0l-.07-.08,0,.08a.9.9,0,0,1-.09-.46v.09a1.8,1.8,0,0,1,0-.22.36.36,0,0,1,0-.1v0c0-.05,0-.05,0,0s-.35.2-.19.15l.09,0a1.71,1.71,0,0,0,.33-.17,1.55,1.55,0,0,0,.72-.91l-1.44.3a12.29,12.29,0,0,0,.1,1.49c0,.11.2.16.28.18a1.23,1.23,0,0,0,.54-.05c.21-.06.67-.22.63-.52a12.29,12.29,0,0,1-.1-1.49c0-.11-.21-.17-.28-.18a1.63,1.63,0,0,0-.44,0,1.54,1.54,0,0,0-.45.17.55.55,0,0,0-.28.28.88.88,0,0,1-.05.15l0,.07c0-.07,0,0,0,0l-.1.12c-.06.08,0,0,0,0l-.09.08c.07-.09.1-.06,0,0l.07,0s-.13,0-.16.06a1.17,1.17,0,0,0-.57.41,1.29,1.29,0,0,0-.13.7.71.71,0,0,0,.31.61,1.74,1.74,0,0,0,.9.18l.86,0a2.08,2.08,0,0,0,1.42-.33.51.51,0,0,0,.18-.25,1.47,1.47,0,0,0,0-.21c0-.15,0-.3,0-.45l-.09-1.92c0-.11-.2-.17-.27-.18a1.4,1.4,0,0,0-.54,0c-.24.07-.65.22-.63.53Z" transform="translate(-2.48 -2.71)"/>
      <path class="cls-5" d="M513.92,52.51a1.76,1.76,0,0,1,.7,1.51l1.4-.46c-.52-.44-1.41-.12-1.88.26a6.18,6.18,0,0,0-1.38,2l1.44-.31c-.38-1-.81-2.07-1.29-3.08-.19-.4-1.57,0-1.45.39.6,2.15,2.05,4.31,1.54,6.63l1.4-.38a15.49,15.49,0,0,0-2.26-2.39c-.26-.22-1.37,0-1.4.37l-.19,2.42,1.44-.31a8.55,8.55,0,0,0-.8-2.74c-.19-.39-1.36-.07-1.45.31a11,11,0,0,0-.26,2.37l1.4-.47A4.75,4.75,0,0,0,507,57.7c-.17,0-.92.2-.84.53a3.15,3.15,0,0,0,2.56,2.15,8.62,8.62,0,0,0,4.25-.15c.14,0,.62-.3.41-.51a5.64,5.64,0,0,0-3.21-1.42,11,11,0,0,0-1.82-.1c-.65,0-1.32.12-1.8-.41-.25-.28-1.17,0-1.34.28s-.68.35-1,.34a1,1,0,0,1-1-1c.05-.49-1.37-.2-1.44.22-.19,1.15-.25,2.6,1.08,3.07.29.1,1.24,0,1.3-.43a1.73,1.73,0,0,0-1.06-1.91c-.33-.15-1.3.06-1.31.51a2.69,2.69,0,0,0,.88,2c.32.31,1.67-.23,1.35-.53a2.47,2.47,0,0,1-.78-1.9l-1.31.51a1.39,1.39,0,0,1,.79,1.5l1.31-.43c-1.1-.38-1-1.73-.81-2.65l-1.44.22c-.12,1.17,1.11,1.53,2.06,1.47s2.23-.23,2.74-1.07l-1.34.29c.8.88,2.2.55,3.26.59A5.3,5.3,0,0,1,512,60.26l.4-.51a8.36,8.36,0,0,1-3.11-.16,2.53,2.53,0,0,1-1.71-1.74l-.84.53a3.41,3.41,0,0,1,2.77.78c.3.25,1.39,0,1.4-.46a10.17,10.17,0,0,1,.25-2.2l-1.44.3a8.47,8.47,0,0,1,.8,2.74c0,.4,1.42.07,1.45-.3l.19-2.41-1.4.37a16.55,16.55,0,0,1,2.27,2.39c.23.31,1.32,0,1.39-.37.53-2.4-.91-4.56-1.53-6.8l-1.45.39c.48,1,.91,2,1.3,3.08.17.48,1.29,0,1.44-.3a10.54,10.54,0,0,1,.54-.92c.08-.12.16-.24.25-.35a1.09,1.09,0,0,1,.13-.17c.18-.2,0-.22-.45,0,.31.26,1.39,0,1.4-.46a2,2,0,0,0-.8-1.66c-.36-.28-1.67.28-1.35.53Z" transform="translate(-2.48 -2.71)"/>
      <path class="cls-5" d="M529.8,55c.62.09,1.24.2,1.85.32l.89.19a1,1,0,0,1,.29.09l.11.08s0,0,0,0l.3-.18c.4,0,.5-.05.3-.07h-.09l-.28,0-.54-.07c-.39,0-.78-.1-1.17-.13-.74-.07-1.48-.12-2.21-.15a1.36,1.36,0,0,0-.87.29c-.16.15-.21.35,0,.46.67.38,1.34.8,2,1.11a3.59,3.59,0,0,0,1.11.3,6.74,6.74,0,0,1,1.11.15,1.26,1.26,0,0,0,1-.28c.24-.21.16-.42-.13-.5a10.73,10.73,0,0,1-2-.4c-.68-.32-1.32-.71-2-1.07l-.86.75c.81,0,1.61.08,2.41.17.43,0,.86.1,1.29.16a2.37,2.37,0,0,0,1.51-.13c.35-.19.71-.6.32-1a2.28,2.28,0,0,0-1.07-.39c-.82-.18-1.65-.33-2.48-.46a1.3,1.3,0,0,0-1,.28c-.22.19-.18.45.13.5Z" transform="translate(-2.48 -2.71)"/>
      <path class="cls-5" d="M523.85,57.75a3.8,3.8,0,0,1,1.53,2.87c0,.09.22.11.26.12a2,2,0,0,0,1-.28c.08-.05.17-.12.16-.23a4,4,0,0,0-1.62-3,.59.59,0,0,0-.37-.05,1.87,1.87,0,0,0-.57.12c-.09,0-.64.28-.42.44Z" transform="translate(-2.48 -2.71)"/>
      <path class="cls-5" d="M522.68,57.52a2.59,2.59,0,0,1-1,1.88,2.24,2.24,0,0,0-.81,1.11,4.35,4.35,0,0,0,0,1.3,1.31,1.31,0,0,0,0,.28c0,.16-.21.15.31-.05l.31-.12h0s-.06-.07-.08-.11a1.85,1.85,0,0,1-.12-.33,8.79,8.79,0,0,0-.61-1.32c-.21-.39-.41-.89-.87-1.06a1.38,1.38,0,0,0-.83,0,2.09,2.09,0,0,0-.35.13l-.08,0-.09,0c-.08,0,0,0,0,0s-.06,0,0,0,0,.09,0,0a1.32,1.32,0,0,0,0-.28c0-.15,0-.3,0-.45s0-.59,0-.88c0-.13,0-.25.05-.38s0-.23,0-.16.07-.06,0,0l-.28.22,0,0-.39.11h.06l-.35-.05c-.12-.14-.16-.16-.11,0l0,.1a2.47,2.47,0,0,0,.1.29,5.77,5.77,0,0,0,.22.58,10,10,0,0,0,.56,1.14c.27.49,1.37.16,1.39-.37a4.59,4.59,0,0,1,.34-1.84l-1.42.1a4.21,4.21,0,0,0,2.07,2.88.88.88,0,0,0,1.15-.55,2.68,2.68,0,0,0-.14-1.12,2,2,0,0,1-.11-1l-1.46.24a2.91,2.91,0,0,0,1.09,1.51c.37.28,1.25.06,1.29-.47l.13-1.95c0-.76-1.42-.57-1.47.11l-.13,1.94,1.29-.48a2,2,0,0,1-.75-1.05c-.22-.67-1.34-.3-1.46.25-.17.74.34,1.39.25,2.12l1.15-.55c-.84-.37-1.19-1.46-1.45-2.28-.2-.61-1.2-.35-1.42.11a5.11,5.11,0,0,0-.42,2.12l1.4-.37a12.61,12.61,0,0,1-.78-1.86.83.83,0,0,0-.87-.61,1.11,1.11,0,0,0-1,.64,3.58,3.58,0,0,0-.17,1,9,9,0,0,0,0,1.16,1.35,1.35,0,0,0,.22.88,1.26,1.26,0,0,0,1,.35,2.64,2.64,0,0,0,.92-.22s.17-.1.13-.06c-.2.24-.45-.23-.33,0s.18.3.26.46.3.53.43.81.22.64.37,1a1.28,1.28,0,0,0,2,.31c.55-.49.24-1.29.31-1.92a.89.89,0,0,1,.33-.63,4.2,4.2,0,0,0,.74-.72,3.53,3.53,0,0,0,.76-2c.05-.77-1.43-.57-1.47.1Z" transform="translate(-2.48 -2.71)"/>
      <path class="cls-5" d="M507.46,75.49a4,4,0,0,1,.87,1.09l-.06-.1a3.63,3.63,0,0,1,.4,1.16l.81-.66c-.12,0,.17,0,.06,0l.11,0s0,0,0,0,0,0,0,0l-.08,0,.1.08a1.63,1.63,0,0,1-.37-.49l-.4-.68c-.07-.12-.29-.16-.4-.17a1.24,1.24,0,0,0-.57.11.77.77,0,0,0-.38.31.32.32,0,0,0,0,.34,9.88,9.88,0,0,0,.56,1,1.21,1.21,0,0,0,1.19.5c.3-.05.88-.24.81-.65a4.13,4.13,0,0,0-1.33-2.36.92.92,0,0,0-1-.06.77.77,0,0,0-.38.31c-.05.1-.09.26,0,.35Z" transform="translate(-2.48 -2.71)"/>
      <path class="cls-5" d="M544.66,90.24c0,.24-.14.46-.17.7a.86.86,0,0,0,.18.71.6.6,0,0,0,.39.11,1.39,1.39,0,0,0,.57-.12.77.77,0,0,0,.39-.27.2.2,0,0,0,0-.28L546,91l0,.08a.66.66,0,0,1-.08-.34v.1a7.78,7.78,0,0,1,.17-.81.14.14,0,0,0,0-.14.18.18,0,0,0-.12-.1.94.94,0,0,0-.47,0,1.49,1.49,0,0,0-.55.18l-.13.1a.43.43,0,0,0-.15.2Z" transform="translate(-2.48 -2.71)"/>
    </g>
    <rect id="Gold_Bar" data-name="Gold Bar" class="cls-5" x="0.22" y="119.01" width="761.49" height="44.79"/>
    <g id="Captial_Advisors_Line" data-name="Captial Advisors Line">
      <g>
        <path id="Dot" class="cls-6" d="M355.49,147a4.63,4.63,0,1,1-4.63-4.63A4.63,4.63,0,0,1,355.49,147Z" transform="translate(-2.48 -2.71)"/>
        <g>
          <path class="cls-7" d="M52.77,156.45a18.1,18.1,0,0,1-9.16,2.6,14.83,14.83,0,0,1-10.89-4.2,15.8,15.8,0,0,1,.05-21.64A14.84,14.84,0,0,1,43.61,129a16.27,16.27,0,0,1,5,.72,14.16,14.16,0,0,1,4.21,2.17V134a16.46,16.46,0,0,0-4.3-2.49,13,13,0,0,0-4.57-.79,13.41,13.41,0,0,0-9.78,3.7A12.78,12.78,0,0,0,30.33,144a13,13,0,0,0,3.73,9.59,12.76,12.76,0,0,0,9.44,3.73,15.33,15.33,0,0,0,4.82-.77,16.65,16.65,0,0,0,4.45-2.25Z" transform="translate(-2.48 -2.71)"/>
          <path class="cls-7" d="M105.87,158.67h-2l-4-10.19H87.64l-4,10.19h-2l12.14-30Zm-6.73-11.94L93.74,133l-5.4,13.69Z" transform="translate(-2.48 -2.71)"/>
          <path class="cls-7" d="M149.82,137.16c0,2.62-.82,4.56-2.46,5.8s-4.19,1.87-7.66,1.87h-1.52v13.84h-1.86V129.36h3.38c3.53,0,6.1.63,7.71,1.91S149.82,134.5,149.82,137.16Zm-1.88,0a5.4,5.4,0,0,0-1.92-4.6q-1.92-1.45-6.32-1.45h-1.52v12h1.52c3,0,5.09-.47,6.35-1.39S147.94,139.26,147.94,137.16Z" transform="translate(-2.48 -2.71)"/>
          <path class="cls-7" d="M182.36,158.67H180.5V129.36h1.86Z" transform="translate(-2.48 -2.71)"/>
          <path class="cls-7" d="M228.21,131.11h-7.05v27.56h-1.85V131.11h-7.05v-1.75h16Z" transform="translate(-2.48 -2.71)"/>
          <path class="cls-7" d="M277.47,158.67h-2l-4-10.19H259.25l-4,10.19h-2l12.13-30Zm-6.72-11.94L265.34,133,260,146.73Z" transform="translate(-2.48 -2.71)"/>
          <path class="cls-7" d="M316.94,158.67h-9V129.36h1.86v27.56h7.15Z" transform="translate(-2.48 -2.71)"/>
          <path class="cls-7" d="M407.66,158.67h-2l-4-10.19H389.43l-4,10.19h-2l12.13-30Zm-6.72-11.94L395.53,133l-5.4,13.69Z" transform="translate(-2.48 -2.71)"/>
          <path class="cls-7" d="M458.4,144.05q0,7.39-4.11,11t-12.61,3.62h-3.57V129.36h4.12q7.89,0,12,3.82T458.4,144.05Zm-1.86,0q0-6.36-3.7-9.64t-10.91-3.27h-2v25.81h1.41q8.08,0,11.62-3.09T456.54,144Z" transform="translate(-2.48 -2.71)"/>
          <path class="cls-7" d="M507.79,129.36l-11,30-10.95-30h2.05l8.9,24.92,9-24.92Z" transform="translate(-2.48 -2.71)"/>
          <path class="cls-7" d="M539.43,158.67h-1.86V129.36h1.86Z" transform="translate(-2.48 -2.71)"/>
          <path class="cls-7" d="M587.5,150.85a7.74,7.74,0,0,1-2.41,6,9,9,0,0,1-6.38,2.23,8.47,8.47,0,0,1-4.84-1.39,8,8,0,0,1-3-3.93l1.59-.81a6.51,6.51,0,0,0,2.46,3.23,6.86,6.86,0,0,0,4,1.15,6.94,6.94,0,0,0,5-1.71,6.23,6.23,0,0,0,1.82-4.74,5.68,5.68,0,0,0-1.47-3.91,14.86,14.86,0,0,0-4.8-3.23,19.34,19.34,0,0,1-5.73-3.62,6.38,6.38,0,0,1-1.58-4.52,6.13,6.13,0,0,1,2-4.78,7.69,7.69,0,0,1,5.34-1.83,7.43,7.43,0,0,1,3.54.81,6.62,6.62,0,0,1,2.52,2.42l-1.46,1.06a5.23,5.23,0,0,0-2-1.89,5.86,5.86,0,0,0-2.79-.65,5.55,5.55,0,0,0-3.92,1.31,4.67,4.67,0,0,0-1.42,3.6,4.72,4.72,0,0,0,.93,3,10.61,10.61,0,0,0,3.3,2.46c.42.23,1.05.55,1.9,1Q587.5,145.72,587.5,150.85Z" transform="translate(-2.48 -2.71)"/>
          <path class="cls-7" d="M647.38,144A14.44,14.44,0,0,1,643,154.68a15.31,15.31,0,0,1-21.42,0A15,15,0,0,1,632.22,129a14.75,14.75,0,0,1,10.8,4.32A14.5,14.5,0,0,1,647.38,144Zm-1.86,0a13.26,13.26,0,1,0-22.69,9.44,12.72,12.72,0,0,0,9.39,3.84A13.16,13.16,0,0,0,645.52,144Z" transform="translate(-2.48 -2.71)"/>
          <path class="cls-7" d="M694.09,158.67h-2.34L681.52,144.2h-.66v14.47H679V129.36h4.31q4.55,0,6.94,2a7,7,0,0,1,2.4,5.72,6.33,6.33,0,0,1-2.34,5.24,10.36,10.36,0,0,1-6.63,1.87ZM690.79,137a5.31,5.31,0,0,0-1.87-4.43,9.08,9.08,0,0,0-5.65-1.47h-2.41v11.35h2.41q3.88,0,5.7-1.31A4.77,4.77,0,0,0,690.79,137Z" transform="translate(-2.48 -2.71)"/>
          <path class="cls-7" d="M739.14,150.85a7.77,7.77,0,0,1-2.41,6,9,9,0,0,1-6.38,2.23,8.44,8.44,0,0,1-4.84-1.39,8,8,0,0,1-3-3.93l1.59-.81a6.57,6.57,0,0,0,2.46,3.23,7.75,7.75,0,0,0,8.92-.56,6.19,6.19,0,0,0,1.82-4.74,5.72,5.72,0,0,0-1.46-3.91,15,15,0,0,0-4.81-3.23,19.34,19.34,0,0,1-5.73-3.62,6.38,6.38,0,0,1-1.58-4.52,6.1,6.1,0,0,1,2-4.78,7.69,7.69,0,0,1,5.34-1.83,7.39,7.39,0,0,1,3.53.81,6.55,6.55,0,0,1,2.52,2.42l-1.46,1.06a5.16,5.16,0,0,0-2-1.89,5.8,5.8,0,0,0-2.79-.65A5.52,5.52,0,0,0,727,132a4.63,4.63,0,0,0-1.42,3.6,4.78,4.78,0,0,0,.92,3,10.8,10.8,0,0,0,3.31,2.46c.41.23,1.05.55,1.9,1Q739.14,145.72,739.14,150.85Z" transform="translate(-2.48 -2.71)"/>
        </g>
      </g>
    </g>
  </g>
  <g id="circle_2" data-name="circle 2">
    <path class="cls-4" d="M524.61,112.23a51.71,51.71,0,0,0,47.67-51.56h0A51.72,51.72,0,0,0,524.47,9.09h0L524.62,7a53.83,53.83,0,0,1,49.77,53.67h0a53.81,53.81,0,0,1-49.61,53.65h0l-.17-2.09Z" transform="translate(-2.48 -2.71)"/>
    <path class="cls-4" d="M466.75,60.67A53.83,53.83,0,0,1,515.94,7h0l.17,2.1a51.71,51.71,0,0,0-47.26,51.53h0a51.72,51.72,0,0,0,47.66,51.56h0l-.17,2.09a53.81,53.81,0,0,1-49.6-53.65Z" transform="translate(-2.48 -2.71)"/>
    <polygon class="cls-4" points="512.35 10.67 512.35 0.38 514.45 0.38 514.45 10.67 512.35 10.67 512.35 10.67"/>
    <polygon class="cls-4" points="521.78 10.63 521.78 0.38 523.88 0.38 523.88 10.63 521.78 10.63 521.78 10.63"/>
    <polygon class="cls-4" points="521.76 115.73 521.76 105.48 523.86 105.48 523.86 115.73 521.76 115.73 521.76 115.73"/>
    <polygon class="cls-4" points="512.35 115.73 512.35 105.48 514.46 105.48 514.46 115.73 512.35 115.73 512.35 115.73"/>
    <g id="inner_circle" data-name="inner circle">
      <g id="gold">
        <path class="cls-4" d="M511,13.68a48,48,0,0,0-38.37,47h0a47.94,47.94,0,0,0,38.37,47c0-.22,0,.45,0,.86,0,1,0,.73,0,.72a49.51,49.51,0,0,1-39.93-48.56h0A49.52,49.52,0,0,1,511.05,12.1" transform="translate(-2.48 -2.71)"/>
        <path class="cls-4" d="M513.15,11.74" transform="translate(-2.48 -2.71)"/>
      </g>
      <g id="gold-2" data-name="gold">
        <path class="cls-4" d="M530,12.07v1.58a47.94,47.94,0,0,1,.52,93.91h0l-.49.11v1.58a49.5,49.5,0,0,0,0-97.19Z" transform="translate(-2.48 -2.71)"/>
        <line class="cls-4" x1="525.14" y1="10.53" x2="525.14" y2="10.53"/>
      </g>
    </g>
  </g>
</svg>
