<svg id="Layer_1" data-name="Layer 1" xmlns="http://www.w3.org/2000/svg" width="638.44" height="684.2" viewBox="0 0 638.44 684.2">
  <defs>
    <style>
      .cls-1, .cls-2 {
        fill: #fff;
      }

      .cls-2 {
        stroke: #fff;
      }
    </style>
  </defs>
  <title>cca-gw-logo-white</title>
  <g id="sillhouette">
    <g>
      <path class="cls-1" d="M553.73,435.53c-1.64,1.77-2.81,1-5,1.77a174.67,174.67,0,0,1,6.07,17c-4.21-1.17-4.46-3.82-9.93-3.25-1.17.1-3.12.72-3.87.51-3.52-1.15-4.26-7.35-8.8-4.94-9.2-15.74-26-27.62-34.18-45.74-.84-1.89-.83-3.84-1.64-5.59-1.9-3.81-5.27-7.19-7.71-10.45-2.67-3.52-6.14-6.67-7.75-10.45-2.61-6.2-1.84-13.69-8.27-17.7.6,18.87-3.48,31.87-2.19,47.45,1.1,13.44,9.09,24.17,16,32.5,2.07,2.53,6.35,5.23,7.15,8.33,1.08,3.69-.25,7.72,0,11.55,1.06,14,2.67,29.16,6.63,41.86,1.86,5.95,5.31,11.17,3.3,17.65-1.54,1.34-3.13-.65-4.95.59-5,7,4.4,10.14,3.33,15.45-1.36,6.43-16.93,2.85-22.64,1.1,2.74-7.55,9.55-12.32,10.46-20.4.55-4.47-.23-9.77-.52-13.79-1.43-20.15-11.13-34.58-19.29-50.18-5.58-10.7-18.12-15.67-21.5-25.93a10.09,10.09,0,0,0-4.42-2.26c0-5.12-4.07-6.13-6-9.28-6.27,3.65-10.79,9.08-14.35,15.39,0,9.49,1.76,14.8,5.5,22.08,1.79,3.45,6.37,8.23,6.08,11.6-.45,5.15-15.65,14.39-19.31,17.63-10.64,9.47-17.75,17.85-22.06,31.93-1.71,1.47-2.19-1.79-5-1.05-2.76,5.46,2.8,7.07,5,9.37.15,3.68-1,6.07-1.64,8.8-4.69.8-13.2,1.26-17.09-.6-.15-9.21,3.06-18.14,5-25.84,1.06-4.35,11-11.95,14.88-16.52,5.54-6.57,13.87-14.43,12.69-25.37-.68-6.22-6.08-11.16-9.92-16C388,430.57,383,414,372.86,402.5c-3.09.34-5.2,1.77-7.71,2.73-.16,2.21,1.45,4.34,0,6.11-2.57-.18-2.64-2.9-3.86-4.46-21.13,8.44-48.07,2.53-72.76,1.15-4.66,8.41-7.51,16.2-6.09,29.27.86,7.47,4.43,14.8,5,22,.33,4.43-1,9-.57,13.3.57,5.6,2.55,11.24,3.87,16.52,2,8.09,5.9,12.85,3.86,20.38-6.19-.65-9.2,5.6-9.93,12.13-4.87-.07-10.38.46-13.82-1.08,5.06-7.9,10.74-12.17,10-26a70.7,70.7,0,0,0-4.42-20.38c-.83-2.07-2.55-3.63-3.3-5.5-5.13-12.93-6.42-26.46-13.24-34.2-3.38-.67-4.92.57-6.61,1.65-4.58-3.15-10.15-5.31-13.83-9.4,1.93-3.21,9.34-1,13.83-1.6-1-6.9-5-10.78-5.52-18.25-3.36-4.84-7.13-4.84-16.55-4.38-10.84.5-27.85-1.73-35.29.52-4.43,1.38-7.33,4.69-9.92,5.59-3.6,9.94-8.64,22.47-5.54,35.77-.16,2.2-4.1-.69-4.39,2.25-.92,6,5.47,4.78,8.83,6.55.71,3.17,2,5.74,2.75,8.84-4.71,5.25-7.46,12.41-12.68,17.12-2.75-4.81-3.87-11.21-7.17-15.44,1.45-7.63-4.13-16.59-3.86-23.18.16-4,4-9.28,5.52-13.79,1.6-4.87,3.74-10.49,4.4-14.86.49-3.31-.39-7.33.56-10.48,5.4-17.48,31.32-14.27,45.2-24.81-1.14-4.34-3.38-8.52-3.86-13.83-1-11.44,1.21-27.09-4.35-34.81-.48,0-2.74,1.44-3.38,1.44-2.29-.36-4.34-.48-6.66-1h1.1a61.26,61.26,0,0,0,7.79-.37,15.2,15.2,0,0,1-.57-1.65.59.59,0,0,1,.31-.07,33.84,33.84,0,0,1-1.87-7.24,1.32,1.32,0,0,1,0-.32c-.83-6.2-1-13.11-1.82-19.3-.11-.89-.27-1.79-.43-2.66-.08-.44-.16-.88-.26-1.31a25.46,25.46,0,0,0-2.38-6.89,15.85,15.85,0,0,0-1.2-1.91c-1.94,9.17-5.29,22.68,1.66,27.57.8,5.24-3.52,5.31-2.78,10.47-.7.26-1.44.49-2.17.72a1.75,1.75,0,0,1,.39-1.19c-1.94-.28-2.11.59-1.7,1.58l-1.65.48a4.12,4.12,0,0,1,.21-2.3s.07,0,.09,0-.08,0-.09,0a2.07,2.07,0,0,0-1.64,2.69c-4.19,1.15-8.41,2.3-11.09,4.09-4.45-1.59-7-5.13-11-7.17-4.53-15.27-2.84-33.54-11-45.24-1.56-2.16-4.68-3.63-5.53-6-1.05-3.1,0-6.92-.54-9.9-.36-2.18-1.7-4.73-2.21-7.15s.06-5.44-.53-7.22c-2.28-6.72-10.8-9.46-9.38-18.19,2.43-.74,7.42,7.12,12.66,7.19,2.06,0,3.28-1.31,5.53-2.23-1.23-5.19-4.23-8.61-6.07-13.23,5.86.65,12,10.34,17.11,11.56,6.8,1.67,15.64-2.58,22.6-2.73,11.12-.19,18.46,3.37,27,7.17,5.07,2.29,10.67,4.22,14.33,6.62,18.07,11.7,29.17,29,44.67,41.85,7.39.49,10.9-3.05,16.54-4.37,1.39-5.07-1.39-7.37-2.21-11.55,1.9-5.38,8.75-5.4,9.93-11.05,1.62-8-4.88-17.28-2.78-25.94,4.31,5.81,3.51,16.7,6.08,24.28,3.35-1.06,2.57-6.29,5.49-7.74-2-8-.18-11.26,3.88-17.64,3.65-5.68,5.56-11.31,11-14.32.44-2.25-.86-2.85-.55-4.94-5.39,2.53-10.83-.83-11.59-4.46-1-5,4.6-12.43,4.42-20.4-.17-6.27-2.76-9-3.32-14.31,2.81-7.42,13.29-3.2,19.83-2.21,4.09,4,7.77,8.46,15.47,8.82,2.34,4.3,8.09,5.13,9.36,10.53-1.48,4-6.56,4.46-9.36,7.12.34,4.16.06,5.47,0,9.93,3.42,1.12,5.3,3.85,8.24,5.51a85.78,85.78,0,0,1,3.86,21c1.06,15.07-7.76,29.26-7.14,40.23.43,7.85,6.87,12.15,9.92,18.77-2.8,8.13,6,8.95,4.93,17.09,10.67,1.63,18.25-3.47,30.32-2.81,12.9.81,24.44,4.74,34.8,8.32,3.49,1.24,7.38,3.59,10.46,3.87,9.31.89,16.7-4.88,24.24-5.52C494.06,312.5,507.46,330,514,344c3.88,8.29,3.26,17.59,8.26,27.56,2.63,5.22,7.74,8.8,9.93,14.89,1.23,3.35,1.27,7.21,2.76,11.6,5.07,5.22,12.87,13.08,10.47,22.06C547.14,426.37,551.17,430.27,553.73,435.53Zm-60.64,88.85c-.71,0-.77-.76-1.65-.62-.25,2.53-4.19,6-1.69,7.79C492,530.22,491.34,526.1,493.09,524.38ZM415.9,320.31c-1.88.42-.68-2.23-2.74-1.66-.78.72-1,3.32.53,3.36C413.47,320.43,415.74,321.46,415.9,320.31Zm-3.84-.52c-1.08-1-4.09-.81-3.32,1.6A9.49,9.49,0,0,0,412.06,319.79Zm-3.9-2.26c-1,.16-1.2-.57-2.17-.51-.31,2.42-2.5-1.6-4.43-1.1,0,1.77-.59,1.24-2.19,2.21,1,1.17,2.74,1.66,3.81,2.76C404.88,319.3,407.56,321.83,408.16,317.53ZM386.13,499c1.24-2.09,8-7.17,6.59-9.9C391,492.81,387.26,494.58,386.13,499Zm-12.68-156.6c1.1-1.95.5-6.13-1.65-6.62C372,338.35,372,341.07,373.45,342.39Zm-17.09-7.21h-1.65c.55,1.88-.76,1.88-2.22,1.74-.39,1.61.58,1.93.56,3.24C355.2,339.59,356.14,337.75,356.36,335.18Zm-5-107.43c.33-.38,1.29-2.7,0-2.83-.11.41-.46.69-1.1.57C350.13,226.75,350.42,227.58,351.39,227.75ZM347,343.49c1.56-1.38,4-4.23,2.2-7.19h-1.65c.62,2.48-1.71,2-2.75,2.78A5.32,5.32,0,0,0,347,343.49Zm.55,15.39c-2.43-9.8-5.14-19.41-9.95-27A129.1,129.1,0,0,0,347.53,358.88ZM336.51,183c.26-2.6-3.1-1.45-3.87-.53C334.72,182.05,335.24,184.3,336.51,183Zm-5,158.3c2.82.05,3.4-2.14,3.31-5-1.13-1.28-2.18.78-3.31-.53Zm-21-38.07c.5-.16,1.46-2.39.55-2.23-.1.65-.88.65-1.65.6v1.08C309.6,303.1,309.94,303.31,310.59,303.24Zm-2.76-14.34c-.16-1.83-.87-3.13-.56-5.53-2.76-.32-4.27.59-6.61.59v3.86C302.41,288.67,305.64,290.28,307.83,288.9Zm-3.32-6.66c3,1.08,3.38-2.36,2.21-3.84C304.77,278.49,304.51,280.26,304.51,282.24Zm-3.3,52.43c1.93-1.11,2.9-4.37,0-5Zm.56-21.5a2,2,0,0,0-2.76,0c-.12,1.59-.09,3,1.65,2.75C300.2,314.15,301.15,313.83,301.77,313.17Zm-3.35.5c.12-1.89-1.28-2.36-2.17-3.26C296.29,312.23,297,313.35,298.42,313.67Zm-4.37-25.32c1.91-.11,3.58-.42,3.31-2.75C294.89,285.13,293.83,286.1,294.05,288.35ZM281.36,515.07c.19-.8,2.51-3.37,0-3.37C282.13,513.26,279.87,514.44,281.36,515.07Zm-7.16-70.69c1-2-.86-3.22-2.76-3.86C271.91,442.27,272,444.38,274.2,444.38ZM264.82,336.3c.68-1.81-3.73-1.33-3.85-.53C262.25,336,263,336.63,264.82,336.3Zm-28.13,4.48c-.2-1.42,3.43-1.7,1.66-2.8C237.71,338.51,234.72,339.43,236.69,340.78Zm-9.36-54.68c.64-1,2.92-.33,2.2-2.73-1.74.27-2.16-.81-3.31-1.13C227.4,284,226.42,284.65,227.33,286.1ZM186.52,391c-.3,2.57,2.93,1.26,2.75-.6C187.71,390,187.83,391.12,186.52,391Zm-7.71-81.13c-.33,1.48,2.26,2.85,2.74,1.71-2.25,0-.69-3.34-1.65-2.19C179.79,309.7,179.44,310,178.81,309.83Z" transform="translate(-24.26 -7.9)"/>
      <path class="cls-1" d="M489.75,531.55c-2.5-1.77,1.44-5.26,1.69-7.79" transform="translate(-24.26 -7.9)"/>
      <path class="cls-1" d="M413.16,318.65c2.06-.57.86,2.08,2.74,1.66-.16,1.15-2.43.12-2.21,1.7C412.17,322,412.38,319.37,413.16,318.65Z" transform="translate(-24.26 -7.9)"/>
      <path class="cls-1" d="M408.74,321.39c-.77-2.41,2.24-2.59,3.32-1.6A9.49,9.49,0,0,1,408.74,321.39Z" transform="translate(-24.26 -7.9)"/>
      <path class="cls-1" d="M406,317c1-.06,1.16.67,2.17.51-.6,4.3-3.28,1.77-5,3.36-1.07-1.1-2.78-1.59-3.81-2.76,1.6-1,2.18-.44,2.19-2.21C403.49,315.42,405.68,319.44,406,317Z" transform="translate(-24.26 -7.9)"/>
      <path class="cls-1" d="M371.8,335.77c2.15.49,2.75,4.67,1.65,6.62C372,341.07,372,338.35,371.8,335.77Z" transform="translate(-24.26 -7.9)"/>
      <path class="cls-1" d="M354.71,335.18h1.65c-.22,2.57-1.16,4.41-3.31,5,0-1.31-.95-1.63-.56-3.24C354,337.06,355.26,337.06,354.71,335.18Z" transform="translate(-24.26 -7.9)"/>
      <path class="cls-1" d="M351.39,224.92c1.29.13.33,2.45,0,2.83-1-.17-1.26-1-1.1-2.26C350.93,225.61,351.28,225.33,351.39,224.92Z" transform="translate(-24.26 -7.9)"/>
      <path class="cls-1" d="M349.18,336.3c1.8,3-.64,5.81-2.2,7.19a5.32,5.32,0,0,1-2.2-4.41c1-.75,3.37-.3,2.75-2.78Z" transform="translate(-24.26 -7.9)"/>
      <path class="cls-1" d="M337.58,331.91c4.81,7.56,7.52,17.17,9.95,27A129.1,129.1,0,0,1,337.58,331.91Z" transform="translate(-24.26 -7.9)"/>
      <path class="cls-1" d="M332.64,182.48c.77-.92,4.13-2.07,3.87.53C335.24,184.3,334.72,182.05,332.64,182.48Z" transform="translate(-24.26 -7.9)"/>
      <path class="cls-1" d="M334.85,336.3c.09,2.87-.49,5.06-3.31,5v-5.54C332.67,337.08,333.72,335,334.85,336.3Z" transform="translate(-24.26 -7.9)"/>
      <path class="cls-1" d="M311.14,301c.91-.16-.05,2.07-.55,2.23s-1-.14-1.1-.55v-1.08C310.26,301.66,311,301.66,311.14,301Z" transform="translate(-24.26 -7.9)"/>
      <path class="cls-1" d="M307.27,283.37c-.31,2.4.4,3.7.56,5.53-2.19,1.38-5.42-.23-7.17-1.08V284C303,284,304.51,283.05,307.27,283.37Z" transform="translate(-24.26 -7.9)"/>
      <path class="cls-1" d="M306.72,278.4c1.17,1.48.81,4.92-2.21,3.84C304.51,280.26,304.77,278.49,306.72,278.4Z" transform="translate(-24.26 -7.9)"/>
      <path class="cls-1" d="M301.21,329.71c2.9.59,1.93,3.85,0,5Z" transform="translate(-24.26 -7.9)"/>
      <path class="cls-1" d="M299,313.17a2,2,0,0,1,2.76,0c-.62.66-1.57,1-1.11,2.75C298.92,316.2,298.89,314.76,299,313.17Z" transform="translate(-24.26 -7.9)"/>
      <path class="cls-1" d="M296.25,310.41c.89.9,2.29,1.37,2.17,3.26C297,313.35,296.29,312.23,296.25,310.41Z" transform="translate(-24.26 -7.9)"/>
      <path class="cls-1" d="M297.36,285.6c.27,2.33-1.4,2.64-3.31,2.75C293.83,286.1,294.89,285.13,297.36,285.6Z" transform="translate(-24.26 -7.9)"/>
      <path class="cls-1" d="M287.44,332.44v3.33c-1.37-1.58-1-.71-.57,1.15-.82-.29-1.36-.88-2.2-1.15.92-.91.43-3.28.55-5C287.3,330,285.33,333.25,287.44,332.44Z" transform="translate(-24.26 -7.9)"/>
      <path class="cls-1" d="M271.44,440.52c1.9.64,3.75,1.88,2.76,3.86C272,444.38,271.91,442.27,271.44,440.52Z" transform="translate(-24.26 -7.9)"/>
      <path class="cls-1" d="M261,335.77c.12-.8,4.53-1.28,3.85.53C263,336.63,262.25,336,261,335.77Z" transform="translate(-24.26 -7.9)"/>
      <path class="cls-1" d="M238.35,338c1.77,1.1-1.86,1.38-1.66,2.8C234.72,339.43,237.71,338.51,238.35,338Z" transform="translate(-24.26 -7.9)"/>
      <path class="cls-1" d="M229.53,283.37c.72,2.4-1.56,1.76-2.2,2.73-.91-1.45.07-2.09-1.11-3.86C227.37,282.56,227.79,283.64,229.53,283.37Z" transform="translate(-24.26 -7.9)"/>
      <path class="cls-1" d="M211.38,327.94c5.56,7.72,3.36,23.37,4.35,34.81-1-11.44.92-26.15-4.63-33.89-1.49-.12-1.2,1-4.45,1.29-4.6.37-2.79.25-10-1a3,3,0,0,1-2.37-2.41l1.43-.39a2.3,2.3,0,0,0,1.44,1.91,17.6,17.6,0,0,0,4.14.18h.05c2.32.48,4.37.6,6.66,1C208.64,329.38,210.9,327.91,211.38,327.94Z" transform="translate(-24.26 -7.9)"/>
      <path class="cls-1" d="M209.66,326.4a15.2,15.2,0,0,0,.57,1.65,61.26,61.26,0,0,1-7.79.37h-1.15a25.27,25.27,0,0,1-2.48-.64,6.11,6.11,0,0,1-1.45-1.93c.44-.12.88-.25,1.31-.39.05.75.8,1.47,2.94,2,2.49.37,2.19,1.17,5.36.53C209.12,327.55,209.17,326.68,209.66,326.4Z" transform="translate(-24.26 -7.9)"/>
      <path class="cls-1" d="M210,326.33a.59.59,0,0,0-.31.07,38.23,38.23,0,0,1-1.56-7.31A33.84,33.84,0,0,0,210,326.33Z" transform="translate(-24.26 -7.9)"/>
      <path class="cls-1" d="M206.23,299.47c.85,6.19,1,13.1,1.82,19.3C207.07,312.57,207,305.69,206.23,299.47Z" transform="translate(-24.26 -7.9)"/>
      <path class="cls-1" d="M205.8,296.81c-.08-.44-.16-.88-.26-1.31C205.64,295.93,205.72,296.37,205.8,296.81Z" transform="translate(-24.26 -7.9)"/>
      <path class="cls-1" d="M203.16,288.61a25.46,25.46,0,0,1,2.38,6.89A26.49,26.49,0,0,0,203.16,288.61Z" transform="translate(-24.26 -7.9)"/>
      <path class="cls-1" d="M197.36,325.85c-.41-1-.24-1.86,1.7-1.58a1.75,1.75,0,0,0-.39,1.19C198.24,325.6,197.8,325.73,197.36,325.85Z" transform="translate(-24.26 -7.9)"/>
      <path class="cls-1" d="M196,324s-.08,0-.09,0S196,324,196,324Z" transform="translate(-24.26 -7.9)"/>
      <path class="cls-1" d="M195.71,326.33l-1.43.39a2.07,2.07,0,0,1,1.64-2.69A4.12,4.12,0,0,0,195.71,326.33Z" transform="translate(-24.26 -7.9)"/>
      <path class="cls-1" d="M181.55,311.54c-.48,1.14-3.07-.23-2.74-1.71.63.12,1-.13,1.09-.48C180.86,308.2,179.3,311.54,181.55,311.54Z" transform="translate(-24.26 -7.9)"/>
    </g>
    <path class="cls-1" d="M410.71,427.59a.93.93,0,0,1-.94.92.92.92,0,1,1,0-1.84A.93.93,0,0,1,410.71,427.59Z" transform="translate(-24.26 -7.9)"/>
    <path class="cls-1" d="M410.86,424.25c0,.67-.22,1.22-.49,1.22s-.51-.55-.51-1.22.22-1.23.51-1.23S410.86,423.57,410.86,424.25Z" transform="translate(-24.26 -7.9)"/>
    <polyline class="cls-1" points="229.22 349.46 229.48 347.94 230.46 347.4 231.81 347.13 231.54 348.92"/>
    <path class="cls-1" d="M276.06,303a13.4,13.4,0,0,0-1.9-4.93,4.57,4.57,0,0,0-4.61-2,150.9,150.9,0,0,0,12.75,11.62c-.71.81-2,.13-2.82-.62-1.62-1.55-3.53-3.45-5.71-2.92" transform="translate(-24.26 -7.9)"/>
    <path class="cls-1" d="M249.77,312.42a16.17,16.17,0,0,1,2,4.58l0-5.74" transform="translate(-24.26 -7.9)"/>
    <path class="cls-1" d="M328.8,248.4a4.32,4.32,0,0,1,1.87,4.58,5,5,0,0,0-3.64-3.72,4.29,4.29,0,0,1-.8,2.18" transform="translate(-24.26 -7.9)"/>
    <path class="cls-1" d="M338.75,269.51a16.59,16.59,0,0,1-.42,5.11" transform="translate(-24.26 -7.9)"/>
    <path class="cls-1" d="M316.2,297.41l.32,7.37a.52.52,0,0,1-.09.37.5.5,0,0,1-.32.09c-1.48.05-3,0-4.45-.05a2.3,2.3,0,0,1-1.32-.36,2.35,2.35,0,0,1-.54-2.07,1.55,1.55,0,0,1,.41-1.17,2,2,0,0,1,.59-.27,3.27,3.27,0,0,0,2-2.23,36.17,36.17,0,0,0,.32,4.53" transform="translate(-24.26 -7.9)"/>
    <path class="cls-1" d="M316.27,309.2a5.37,5.37,0,0,1,2.28,4.82c-.59-.84-1.89-.06-2.52.76a32.1,32.1,0,0,0-3.15,4.92,95.9,95.9,0,0,0-3.93-9.36c1.81,6.84,6.38,13.52,4.67,20.39a45,45,0,0,0-6.87-7.27l-.58,7.33a24.21,24.21,0,0,0-2.45-8.32,28.84,28.84,0,0,0-.79,6.93,12,12,0,0,0-10.1-2.59c.55,2.73,3,4.77,5.61,5.67a24.12,24.12,0,0,0,8.27.78,10.91,10.91,0,0,0,3.78-.52c-3.7-3.74-9.44-4.55-14.69-4.32-2.17.09-4.72.16-6.05-1.55-.57,1.22-2.09,1.6-3.41,1.83a9.47,9.47,0,0,1-4.58,0c-1.47-.48-2.72-2-2.38-3.48a13.71,13.71,0,0,0-.22,5,4.63,4.63,0,0,0,3.08,3.67,4.65,4.65,0,0,0-2.82-5.18,7.4,7.4,0,0,0,2.52,6" transform="translate(-24.26 -7.9)"/>
    <path class="cls-1" d="M363.82,316.43q4.13.6,8.21,1.52a4.47,4.47,0,0,1,1.86.74.91.91,0,0,1,.36.48.8.8,0,0,1-.57.86,2.49,2.49,0,0,1-1.12,0A107.8,107.8,0,0,0,360,318.88l4.38,2.41a14.32,14.32,0,0,0,3.27,1.47c1.6.41,3.31.26,4.9.71" transform="translate(-24.26 -7.9)"/>
    <path class="cls-1" d="M346.45,325.15a11.89,11.89,0,0,1,4.8,8.92" transform="translate(-24.26 -7.9)"/>
    <path class="cls-1" d="M343.07,325.08a9.22,9.22,0,0,1-3,6.33,9.83,9.83,0,0,0-2,2c-1,1.58-.44,3.6-.5,5.46a1.72,1.72,0,0,1-.26,1,1.34,1.34,0,0,1-1.91-.07,4.51,4.51,0,0,1-.95-1.92,30.69,30.69,0,0,0-2.73-5.47,1.66,1.66,0,0,0-.6-.71,1.91,1.91,0,0,0-1.69.19c-1.1.49-2.68.78-3.24-.28a2.22,2.22,0,0,1-.2-1,30.2,30.2,0,0,1,.34-6.37c.07-.43.29-1,.72-.94s.53.45.63.8a28,28,0,0,0,2.55,6,14.42,14.42,0,0,1,1.14-6c1,3.11,2.33,6.59,5.36,7.83.35-2.16-1.33-4.32-.77-6.43a7.39,7.39,0,0,0,2.79,3.88l.41-5.9" transform="translate(-24.26 -7.9)"/>
    <path class="cls-1" d="M296.62,378.9a11.59,11.59,0,0,1,3.84,6.85c-1,.2-1.72-.79-2.22-1.65l-1.3-2.26" transform="translate(-24.26 -7.9)"/>
    <path class="cls-1" d="M409.8,424.32c-.08.65-.35,1.26-.48,1.9a2,2,0,0,0,.38,1.84" transform="translate(-24.26 -7.9)"/>
    <path class="cls-1" d="M253.39,309.14a7,7,0,0,0-.63,5.93,6,6,0,0,1,.46,1.57l-2.17-1.54c-.48-.35-1-.81-1-1.41a5,5,0,0,0,.62,3.51l-.12-2.18" transform="translate(-24.26 -7.9)"/>
    <path class="cls-1" d="M274.8,299.62a15.16,15.16,0,0,0,.38,5,1.18,1.18,0,0,0-.18-1.22,1.84,1.84,0,0,1-.45-1.19,1.29,1.29,0,0,1,.29-.6,5.45,5.45,0,0,1,1.42-1.33,4.55,4.55,0,0,0,.33,2.55" transform="translate(-24.26 -7.9)"/>
    <path class="cls-1" d="M294.25,327a1.64,1.64,0,0,0,.32,1.38" transform="translate(-24.26 -7.9)"/>
    <path class="cls-1" d="M304.09,326a23.67,23.67,0,0,0,.29,3.94" transform="translate(-24.26 -7.9)"/>
    <path class="cls-1" d="M312.43,323.9c.11,1.81.32,3.61.6,5.41" transform="translate(-24.26 -7.9)"/>
    <path class="cls-1" d="M312.56,315.3A9.37,9.37,0,0,1,314,318" transform="translate(-24.26 -7.9)"/>
    <path class="cls-1" d="M316.48,310.62a9,9,0,0,1,1,2.54" transform="translate(-24.26 -7.9)"/>
    <path class="cls-1" d="M317.7,309.28a3.88,3.88,0,0,1,.61,1.67" transform="translate(-24.26 -7.9)"/>
    <path class="cls-1" d="M315.16,297.15l.12,7.92a2.45,2.45,0,0,0-1.56-.75c-.23,0-.54-.06-.57-.28a.46.46,0,0,1,0-.23c.65-1.94,1.66-3.86,1.48-5.9a45.71,45.71,0,0,0-.71,6.81c-1.13-.67-2.39-1.55-2.45-2.86l-.36,2a.55.55,0,0,1-.1.25c-.15.14-.39.05-.58,0a1.58,1.58,0,0,0-1.7.43,3.07,3.07,0,0,1,.66-2.54,13.11,13.11,0,0,0-.64,4.17" transform="translate(-24.26 -7.9)"/>
    <path class="cls-1" d="M337.86,270.41v2.35" transform="translate(-24.26 -7.9)"/>
    <path class="cls-1" d="M330.35,248.32a1.63,1.63,0,0,1,1.18,2.11" transform="translate(-24.26 -7.9)"/>
    <path class="cls-1" d="M327.4,327.27l1.89,3.54c.11.2.2.48,0,.63a.48.48,0,0,1-.33.08l-1.48,0a.31.31,0,0,1-.25-.08.25.25,0,0,1,0-.24l.48-2.64" transform="translate(-24.26 -7.9)"/>
    <path class="cls-1" d="M327.64,328.45a4.4,4.4,0,0,0,.4,2.45" transform="translate(-24.26 -7.9)"/>
    <path class="cls-1" d="M331.29,326.72a3.37,3.37,0,0,0,.66,1.83l1.78,2.92A9.48,9.48,0,0,1,335,334.2a12.92,12.92,0,0,1,.21,1.52,13,13,0,0,0,.72,2.87,27.45,27.45,0,0,1-3.36-7.52" transform="translate(-24.26 -7.9)"/>
    <path class="cls-1" d="M335.53,328.58a3.3,3.3,0,0,0,.54,2.26" transform="translate(-24.26 -7.9)"/>
    <path class="cls-1" d="M337.38,329.29a22.19,22.19,0,0,0,2.18,1l1.33-2.56a1.49,1.49,0,0,0,.23-.73.51.51,0,0,0-.46-.52c-.37,0-.5.47-.58.83a8.08,8.08,0,0,1-1.07,2.31,2.67,2.67,0,0,1-.46.64c-.43.4-1.1.53-1.43,1a10,10,0,0,1,4.32-1.27" transform="translate(-24.26 -7.9)"/>
    <path class="cls-1" d="M348.7,328.58a5,5,0,0,0,1.18,3.76" transform="translate(-24.26 -7.9)"/>
    <path class="cls-1" d="M363.25,317a2.43,2.43,0,0,0,.81,2.13,7,7,0,0,1,1.51,1.81,8.16,8.16,0,0,0-1.05-4.37,5.54,5.54,0,0,0,.93,2.43l1.29,2.25a35.42,35.42,0,0,0,.07-4,.36.36,0,0,1,.42,0,11.09,11.09,0,0,0,2.18,4.28,8.51,8.51,0,0,1,.39-3.05,6.22,6.22,0,0,0,.46,3.56,28.87,28.87,0,0,0,.5-3.83,10.62,10.62,0,0,0,.23,3,23.84,23.84,0,0,1,1.06-2.69l-.07,3.81" transform="translate(-24.26 -7.9)"/>
    <path class="cls-1" d="M296.71,380.21a6,6,0,0,0,.49,3" transform="translate(-24.26 -7.9)"/>
    <path class="cls-1" d="M180.09,305.55a11.68,11.68,0,0,0,1.75,8.28,21.08,21.08,0,0,0-5.09-7,12.89,12.89,0,0,0,4.61,8,8.83,8.83,0,0,0,.88-6.29,13.31,13.31,0,0,0,.65,4.73l0-4.1V313a9.53,9.53,0,0,0-.54-4.64" transform="translate(-24.26 -7.9)"/>
    <path class="cls-1" d="M227.62,282.35c.07,2.37,2.37,4.28,2.34,6.65" transform="translate(-24.26 -7.9)"/>
    <path class="cls-1" d="M237.56,339.44a6.7,6.7,0,0,0,.1,2.32c0,.13.07.28.2.33s.27,0,.38-.12l3-2.16" transform="translate(-24.26 -7.9)"/>
    <path class="cls-1" d="M262.14,336.59h3.57" transform="translate(-24.26 -7.9)"/>
    <path class="cls-1" d="M285.71,330.71c.44,1.43,0,3,.06,4.47s.79,3.24,2.27,3.41" transform="translate(-24.26 -7.9)"/>
    <path class="cls-1" d="M303.15,329.1v4.63" transform="translate(-24.26 -7.9)"/>
    <path class="cls-1" d="M294.6,309.82a3.42,3.42,0,0,1,2,1.2,53.64,53.64,0,0,1,5.8,6.87" transform="translate(-24.26 -7.9)"/>
    <path class="cls-1" d="M308.47,301.64a7.77,7.77,0,0,1,1.47-4.28" transform="translate(-24.26 -7.9)"/>
    <path class="cls-1" d="M308.3,279.43a21.15,21.15,0,0,1-3.23,4.78,7.4,7.4,0,0,0-2.05,3,3.13,3.13,0,0,0,5.58,2.54,71,71,0,0,0-10.78-1.1l0-1.13" transform="translate(-24.26 -7.9)"/>
    <path class="cls-1" d="M332.73,335.38a11.69,11.69,0,0,0-.05,4.89,4,4,0,0,0,3.42,3.06,39.79,39.79,0,0,0-.17-15c2,9.59,8,18.05,9.46,27.74.27,1.73.52,3.74,2,4.68L347.32,349c0-5.34-.07-10.74,1.09-16l3.36,8.37c.13.34.38.74.73.67a.73.73,0,0,0,.46-.4,15.77,15.77,0,0,0,2.24-5.6,3.59,3.59,0,0,0,1.23,1.8l.62-2.59.67,1.07" transform="translate(-24.26 -7.9)"/>
    <path class="cls-1" d="M372.92,334.81a41.06,41.06,0,0,0,.62,10.67c.38-2-.59-4-1.52-5.81-2-3.78-3.91-7.57-6.21-11.15" transform="translate(-24.26 -7.9)"/>
    <path class="cls-1" d="M402,316.69a16.31,16.31,0,0,0,6,3.2c1.34.39,2.73.6,4.07,1a7.11,7.11,0,0,1,3.5,2.19" transform="translate(-24.26 -7.9)"/>
    <path class="cls-1" d="M350.94,225.67v.54" transform="translate(-24.26 -7.9)"/>
    <path class="cls-1" d="M333.65,182.53a.79.79,0,0,1,.88.35" transform="translate(-24.26 -7.9)"/>
    <path class="cls-1" d="M490.39,526.14v2.68" transform="translate(-24.26 -7.9)"/>
    <path class="cls-1" d="M396,491.23q-2.43,3.9-4.47,8" transform="translate(-24.26 -7.9)"/>
    <path class="cls-1" d="M271.9,441.29a41.11,41.11,0,0,0,3.41,5.16" transform="translate(-24.26 -7.9)"/>
    <path class="cls-1" d="M190.63,392.58v.53" transform="translate(-24.26 -7.9)"/>
    <path class="cls-1" d="M281.93,512a10,10,0,0,1-1,4.06,30.39,30.39,0,0,1,1.22-4.26" transform="translate(-24.26 -7.9)"/>
  </g>
  <path class="cls-1" d="M367.48,655.27C525.66,643,650.24,510.77,650.22,349.45h0c0-161.64-125-294.07-283.61-305.89h0l.92-12.44C532.62,43.44,662.67,181.24,662.7,349.45h0c0,167.9-129.61,305.5-294.24,318.24h0l-1-12.42Z" transform="translate(-24.26 -7.9)"/>
  <path class="cls-1" d="M24.26,349.46c0-167,128.29-304.13,291.75-318.07h0l1,12.42C160,57.21,36.71,188.93,36.73,349.46h0c0,161.31,124.54,293.55,282.71,305.81h0l-1,12.42C153.84,654.94,24.26,517.33,24.26,349.46Z" transform="translate(-24.26 -7.9)"/>
  <polygon class="cls-1" points="285.18 61.06 285.18 0 297.65 0 297.65 61.06 285.18 61.06 285.18 61.06"/>
  <polygon class="cls-1" points="341.11 60.84 341.11 0 353.59 0 353.59 60.84 341.11 60.84 341.11 60.84"/>
  <polygon class="cls-1" points="340.99 684.2 340.99 623.38 353.47 623.38 353.47 684.2 340.99 684.2 340.99 684.2"/>
  <polygon class="cls-1" points="285.22 684.2 285.22 623.38 297.69 623.38 297.69 684.2 285.22 684.2 285.22 684.2"/>
  <g id="inner_circle" data-name="inner circle">
    <g id="gold">
      <path class="cls-2" d="M287,70.78C157.13,97.05,59.37,211.83,59.38,349.45h0C59.37,487,157.14,601.83,287,628.1c0-1.29,0,2.69,0,5.13,0,6.14,0,4.29,0,4.25-135-26.41-236.81-145.33-236.82-288h0C50.18,206.72,152,87.79,287,61.39" transform="translate(-24.26 -7.9)"/>
      <path class="cls-2" d="M299.49,59.24" transform="translate(-24.26 -7.9)"/>
    </g>
    <g id="gold-2" data-name="gold">
      <path class="cls-2" d="M399.43,61.22v9.36C529.73,96.5,628,211.51,628,349.44c0,136.84-96.7,251.05-225.45,278.16l-.18,0c-.95.2-1.9.44-2.86.64v9.37c135.41-26.08,237.69-145.19,237.69-288.21S534.89,87.26,399.43,61.22Z" transform="translate(-24.26 -7.9)"/>
      <line class="cls-2" x1="361.08" y1="60.26" x2="361.08" y2="60.26"/>
    </g>
  </g>
  <path class="cls-1" d="M277.82,365.36H261.77c-3.62,0-6.27.52-9.18-1.8-2.51-2-2.13-2.53-2-5.48.06-1.56.19-3.12.24-4.69a132.51,132.51,0,0,0-2.56-30.06c-.15-.77-1.7-.44-1.89.16-3.54,11.09,1.24,21.93,6.09,31.85a223.3,223.3,0,0,0,18.78,31.47c.39.56,1.85.24,1.86-.5a379.69,379.69,0,0,1,5.06-56.83l-1.94.33a122.83,122.83,0,0,1,1.13,36l1.72-.63q-13.67-10.44-26.42-22a1.2,1.2,0,0,0-1.72.63,62.78,62.78,0,0,0,2.59,32.46c.29.81,1.84.43,1.95-.34A191.75,191.75,0,0,0,256.9,340l-1.87.5c7.85,8.1-7.65,20.39,1.5,28.29.44.38,1.72,0,1.73-.62l.13-19.45c0-1-1.92-.7-2,.16a16.11,16.11,0,0,0,3.14,10.65c.42.58,1.82.23,1.87-.5a7.27,7.27,0,0,0-3.89-7.33c-.52-.3-1.64-.1-1.72.63a7.37,7.37,0,0,0,2.65,6.88,1.21,1.21,0,0,0,1.73-.63,97.67,97.67,0,0,0-1.94-36.8c-.22-.9-2-.37-1.93.52a35.58,35.58,0,0,0,12.27,22.91c.54.47,1.55,0,1.72-.63A17.26,17.26,0,0,0,266,327.21c-.46-.47-1.82-.3-1.86.5-.3,5.17,2.19,9.29,5.31,13.23,1.85,2.33,4.3,5.4,7.67,4.21,2.75-1,3.47-4.16,3.91-6.68.51-2.94,1.71-8.24,5.91-4.66,2.33,2,4.2,5.78,6,8.25.39.53,1.32.24,1.69-.15a6,6,0,0,0,1.84-5.35c-.07-.86-2-.4-1.93.52L293,341.36l1.69-.15c-2.45-3.37-7.38-14.35-12.92-9.62-2.91,2.49-1.8,6.32-3.26,9.37-2.8,5.84-6.83-.1-8.78-2.82-2.33-3.27-3.88-6.48-3.65-10.58l-1.86.5a16.5,16.5,0,0,1,4.14,16.7l1.72-.63a34.63,34.63,0,0,1-11.83-22.33l-1.93.52a96.59,96.59,0,0,1,1.91,36.44l1.72-.63a5.82,5.82,0,0,1-2.19-5.93l-1.72.63a6.23,6.23,0,0,1,3.42,6.38l1.86-.5a14.64,14.64,0,0,1-2.95-10l-2,.16-.13,19.44,1.72-.63c-8.56-7.4,6.75-19.81-1.22-28-.42-.44-1.9-.32-1.86.5a190.88,190.88,0,0,1-1.43,35.92l1.94-.33a62,62,0,0,1-2.56-32.09l-1.73.63q12.75,11.55,26.42,22c.5.38,1.65,0,1.73-.63a124.23,124.23,0,0,0-1.16-36.37c-.16-.88-1.83-.36-1.94.33a378.64,378.64,0,0,0-5.07,56.84L273,386a221.63,221.63,0,0,1-17.11-28.13c-5.24-10.33-11.46-22.34-7.68-34.14l-1.89.15A132.35,132.35,0,0,1,248.89,346q.13,5.18-.15,10.33c-.12,2.26-.8,5.34.36,7.47,1.49,2.75,5.06,2.85,7.78,2.92,6.91.18,13.85,0,20.77,0,1.09,0,1.49-1.4.17-1.4Z" transform="translate(-24.26 -7.9)"/>
  <path class="cls-1" d="M322,304.74l0-29-1.93.52a324.61,324.61,0,0,1-2.35,52.24l1.92-.4c.18-7.6.2-24.22-10.11-26.13-8.91-1.65-4.89,11.64-10.53,13.84-1.26.5-.09.93.72.62a6,6,0,0,0,3.64-3.72c.78-1.93.81-8.18,2.91-9.2,1.36-.66,4.57.8,5.69,1.72a13.15,13.15,0,0,1,2.71,3.64,22,22,0,0,1,2.1,5.68c1.08,4.59,1.05,9.38.94,14.07,0,.46,1.86.1,1.93-.41a325.12,325.12,0,0,0,2.36-52.47c0-.48-1.93-.12-1.93.52l0,29c0,.45,1.93.13,1.93-.52Z" transform="translate(-24.26 -7.9)"/>
  <path class="cls-1" d="M309.74,308l0,30.21c0,4.91,9.16,3.22,9.76-.82a224.84,224.84,0,0,0,1.58-52.55c-.37-4.31-9.07-1.54-9.71,1.71a654.46,654.46,0,0,1-30.15,105.92l9.43-.83-10.41-31.79c-1.41-4.33-8.76-1.58-9.71,1.71l-2.41,8.36,8.63-3.12c-15.24-7.42-24.06-21.85-31.24-36.6-7.32-15-13.53-30.85-24-44.06l-8.18,4.78,38.87,26.91c2.81,1.95,9-.14,8.57-4a69.64,69.64,0,0,0-11.53-31.48l-8.18,4.79a422,422,0,0,0,70,41.65,6.61,6.61,0,0,0,8.34-2.24c10.28-15.5,21.24-32.38,22.35-51.51.58-10.06-2.49-19.93-1.83-30,.57-8.52,4.59-16.88-.29-24.85-1.89-3.08-7.63-.74-9,1.61a155.27,155.27,0,0,0-22.05,83c.11,5.18,8.65,2.84,9.76-.83a391,391,0,0,1,18.1-47.9l-9.42.82c5.8,59.46,52.52,111.7,110.77,124.62,2.14.47,9.13-.73,7.65-4.43-8.26-20.66-36.1-26.63-53.6-14.1-5.32,3.82,2.61,6.78,6.33,4.12,12.79-9.17,32-1.39,37.61,12.57l7.65-4.43C386.75,362.71,342.29,312,336.66,254.34c-.4-4.08-8.33-1.59-9.43.83a405.64,405.64,0,0,0-18.67,49.67l9.76-.83a151.35,151.35,0,0,1,21.48-81.26l-9,1.61c2.41,3.94,1.58,8.39.79,12.69a62.19,62.19,0,0,0-1.45,13.39c.27,9.07,2.58,18,1.77,27.06-1.6,17.9-12,33.52-21.66,48.09l8.34-2.23a422.1,422.1,0,0,1-70-41.66c-2.68-2-10.81.85-8.18,4.79a65.71,65.71,0,0,1,10.74,29.9l8.58-4-38.87-26.91c-2.61-1.8-11.16,1-8.18,4.79,20.34,25.65,24.82,66.39,56.62,81.89,3,1.47,7.62.38,8.63-3.11l2.42-8.36-9.71,1.71L281,394.19c1.19,3.65,8.28,2.19,9.42-.82a664.79,664.79,0,0,0,30.72-107.69l-9.71,1.71a217.37,217.37,0,0,1-1.68,50.78l9.76-.82,0-30.22c0-4.86-9.76-3.29-9.76.83Z" transform="translate(-24.26 -7.9)"/>
  <path class="cls-1" d="M390.39,489.3l-6.64,8.83c-1.32,1.76-.95,3.84,1.24,4.62s5.42,0,6.83-1.83l6.64-8.83c1.32-1.76,1-3.84-1.24-4.62s-5.42,0-6.83,1.83Z" transform="translate(-24.26 -7.9)"/>
  <path class="cls-1" d="M277,513.87v3.25c0,.67,1.42,1,1.79,1a9.14,9.14,0,0,0,3.57-.34c1.52-.44,4.3-1.32,4.3-3.27v-3.25c0-.68-1.41-1-1.79-1a9.17,9.17,0,0,0-3.57.33c-1.51.44-4.3,1.32-4.3,3.28Z" transform="translate(-24.26 -7.9)"/>
  <path class="cls-1" d="M487.38,526.87a13.57,13.57,0,0,1-.3,4.75c-.45,1.86,3,1.53,4,1.36a11.77,11.77,0,0,0,3.67-1.18c.65-.37,1.73-.91,1.93-1.7a17,17,0,0,0,.38-5.82c-.07-.66-1.35-.88-1.76-.92a9.49,9.49,0,0,0-3.56.37c-1.26.36-4.54,1.31-4.34,3.14Z" transform="translate(-24.26 -7.9)"/>
  <path class="cls-1" d="M184.49,394.29c.81.24,1.62.52,2.44.71a9.61,9.61,0,0,0,4.7-.25,10.93,10.93,0,0,0,3.59-1.55c.81-.59,1.5-1.36,1-2.37a3.11,3.11,0,0,1-.5-1.4c0-.61-1.47-.79-1.74-.81a10.18,10.18,0,0,0-3.55.42,10.07,10.07,0,0,0-3.28,1.41c-.56.42-1.07.82-1.09,1.57s.67,1.27.68,2l.05-.49a.33.33,0,0,1,0,.14l.37-.53,1.36-.9,2.38-.89-.15,0,3.55-.42c.59.13.72.16.39.07l-.21-.06-.73-.22-1.34-.39a7.53,7.53,0,0,0-3.1,0,12.49,12.49,0,0,0-3.67,1.17c-.63.34-1.76.85-2,1.61s.21,1,.83,1.17Z" transform="translate(-24.26 -7.9)"/>
  <path class="cls-1" d="M312.1,312.1a420.83,420.83,0,0,0,22.44-43.65l-9,1.58,18.18,35.87c1.78,3.52,10.26.59,9.25-3.42l-7.53-29.79c-1.59-6.26-2.84-14.39-8.92-18-6.62-4-13.83.28-19.49,3.91-6.65,4.28-11.94,10.16-11.14,18.5.45,4.63,8.1,1.29,9.45-.74,7.76-11.71,15.32-24.58,11.88-39.13-.87-3.67-7.2-2.31-8.87-.12-5.11,6.67-3.92,14.07-3.73,22,.2,8.44-1.24,17.11-6.22,24.13-8.54,12-22.67,18.5-30.87,31-1.22,1.87.83,3.49,2.39,3.92a6.61,6.61,0,0,0,6.27-2c11-12.39,28.39-16.53,40.2-28.2l-8.08-2.83c-11.44,16.52-29.52,28.19-34.59,48.62-1.07,4.34,6.37,2.92,8.1,1.82,15.68-10,30.56-21.23,45.3-32.58l-7.24-3.61q-16.8,21.38-34.37,42.14l8.65,2a55,55,0,0,1,17.36-18.77L313.67,322c-5.53,11.6-10.91,23.42-11.91,36.39-.23,3,3.66,3.58,5.78,2.92l20.81-6.46,9.46-2.94,5.67-1.77,1.89-.59q3.57-.51.44-1c2.87,3.28,12.05-.58,8.85-4.25-4.85-5.55-15-.07-20.51,1.64l-28.38,8.82,5.78,2.92c.95-12.37,6.08-23.49,11.35-34.55,2.27-4.76-5.64-4.21-7.82-2.74a64.72,64.72,0,0,0-20.19,22.07c-2.66,4.74,6.57,4.43,8.66,2q17.56-20.76,34.37-42.14c3.65-4.64-4.37-5.81-7.24-3.61-14.74,11.35-29.62,22.55-45.3,32.58l8.09,1.82c4.63-18.66,22.4-29.91,32.88-45,3.66-5.29-5.21-5.66-8.08-2.83-11.81,11.66-29,15.62-40.2,28.2l8.66,2c8-12.17,22.28-18.39,30.52-30.42a42.47,42.47,0,0,0,7-21.57c.44-7.23-2.62-17.18,2.11-23.36l-8.87-.12c3.12,13.19-4.47,24.91-11.45,35.44l9.44-.74c-.59-6.2,5.74-11.05,10.85-13.32s6.71,4,7.8,7.9c3.34,11.9,6.08,24,9.11,36l9.25-3.42-18.18-35.87c-1.59-3.15-7.91-1-9,1.58A419.75,419.75,0,0,1,302.86,311c-2.72,4.62,7.09,4.73,9.24,1.1Z" transform="translate(-24.26 -7.9)"/>
  <path class="cls-1" d="M337.84,317.61c-1-23.63,6.6-45.43,15.83-66.76l-37.92-.29A252.11,252.11,0,0,1,305,292.79q-3.68,10.29-8.19,20.26c-1.42,3.13-2.87,6.28-4.52,9.3-.53,1-1.09,1.95-1.67,2.91-.95,1.52-1.18,1.88-.7,1.08s.22-.48-.85,1q-5.1,5.31,7.37-3.68l10.21-.88c.65.1,4.74,2.36,3.14.74a11.76,11.76,0,0,0-2.06-1.3,5.12,5.12,0,0,1-2.16-1.74c-2.76-2.92-4.55-6.42-6.63-9.82-4-6.54-10.19-11.37-16.6-15.41-7-4.39-13.94-9.08-21.17-13-11.95-6.5-31.65-3.23-37.5,10.39-3.16,7.34-4.6,16.09-5.7,24-1.21,8.61-2.7,18.31,1.87,26.14,3.65,6.26,10.75,11.1,17,14.54a83.65,83.65,0,0,0,25.34,8.91c11.58,2.18,27.4-1.33,33.17-12.7,4-8-1.49-17.25-5.6-24.1-3.79-6.32-9-12.63-15.72-16C261.39,307,241,308.22,233.41,322c-4.33,7.85,1.81,16,5.77,22.73a131.37,131.37,0,0,0,11.89,17c9,10.8,20,20.57,32.52,27,16.37,8.4,34.84,12.46,53.25,10.66a93.47,93.47,0,0,0,28.49-7.4c8.86-3.87,19.31-10.06,23-19.52,2.52-6.43-.31-12.54-7.13-14.52-7.51-2.19-15.76-5.66-23.6-5.73a31.59,31.59,0,0,0-19,5.59c-3.48,2.5-8,7.24-7.81,12,.22,5.27,2.69,9.61,8.27,11,14.08,3.44,28.29,5.85,42.61,2a50.49,50.49,0,0,0,19.67-10.15,103.54,103.54,0,0,0,7.88-7.51c.91-1,1.8-1.94,2.74-2.89.55-.57,4-3.52,1.29-1.28l-30.41,0c3.49,3.77,6.82,8.31,8.44,12.16,1.83,4.34,3.6,10.76,3.78,14.33.48,9.18,9.13,12.89,17.67,11.94,5.08-.56,10.47-2.05,14.54-5.26,2.81-2.22,7.06-6,6.85-9.94-.77-14.92-5.51-28.81-15.82-39.93-7.36-7.94-22.54-6.43-30.41,0a127.16,127.16,0,0,0-11.33,10.81c-.23.23-3.93,3.81-1.16,1.39a30.68,30.68,0,0,1-2.49,1.93c2-1.1,2-1.16,0-.2q3.74-1.32.4-.4c2.6-.45,2.75-.55.43-.3l-1.64.06q3.3,0,0-.18c-2.22-.39-4.48-.56-6.71-1,3.1.57-3.21-.77-3.8-.92l8.27,11-.63,1.71-5.72,6.39.91-.53-14.55,5.26,1.53-.07-9.39-1c5.61,1.34,11.14,3.16,16.68,4.78l-7.13-14.52c-1.65,4.21,1.47-2.4,1.77-1,.05.25-4.07,2.74-1.42,1.11,2.41-1.47-1.45.69-2,.93-.85.4-5.3,2.95-.82.53a20.87,20.87,0,0,1-7.59,2c5-.07.05-.11-1,0-1.3.12-2.64.1-3.94.25-2.21.27,3,.25-.6,0-1.59-.1-3.17-.2-4.76-.37-1.32-.15-2.63-.45-3.95-.56-1.91-.16,2,.61-1.05-.19-2.84-.75-5.65-1.57-8.41-2.6-1.25-.46-2.48-1-3.71-1.48-4.51-1.94,2.24,1.37-2-1a84,84,0,0,1-24.06-19.45,125.74,125.74,0,0,1-10.49-14q-2.18-3.36-4.15-6.83c-.79-1.38-1.59-2.78-2.3-4.2l-.74-1.41c.52,1,.6.76.25-.6l-.92,7.09.47-1-10,8.9,1.46-.55-10.27,2.75-5-.56c-1.18-.7-1.28-.75-.31-.16.19.19,2.23,1.61,1.68,1.13a56.15,56.15,0,0,1,8.12,11.62c-.47-1,.52,1.32.49,1.24q.48,1.13.9,2.28.74,2.65,1-2.35l5.72-6.39,2.47-1.53,10.27-2.75c-1.56.19-1.5.24.2.14,1.88,0,1.77-.07-.32-.3,2,1.11,0-.05-1.24-.4s-2.67-.8-4-1.27c.08,0-4.51-1.85-2.43-.87-4.66-2.18-11.05-5.69-12.9-9.34.57,1.14-.25-1.44-.24-1.28,0-.94.12-2.42.19-3.54q.38-5.57,1.24-11.08c.47-3.06,1.05-6.11,1.74-9.13.42-1.82.9-3.61,1.35-5.41l.51-1.79c-.44,1.1-.37,1.09.2,0l-5.72,6.4.73-.6-14.54,5.26,1.1-.16-9.39-1q-3.12-1.77.17.2L236,306.8l5.89,3.62c3.27,2,6.56,4,9.82,6.06,6.92,4.33,9.35,6.84,13.55,13.88a41.88,41.88,0,0,0,16.76,16c13.22,6.79,28.77,3,38.63-7.84,10.52-11.59,16.32-28.21,21.46-42.73a295,295,0,0,0,12.75-48.46c1.45-8.46-8.74-11.87-15.18-11.92-8-.06-19.25,3.57-22.74,11.64-10.08,23.28-19.18,48.1-18.11,73.85.39,9.2,9.2,12.88,17.66,11.95,6.81-.76,21.79-5.84,21.4-15.21Z" transform="translate(-24.26 -7.9)"/>
  <path class="cls-1" d="M455.6,363.8c-7.19-13-15.23-25.22-27.82-33.64-15.52-10.38-35.91-11.46-53.61-7.19-9.58,2.31-23.82,7.47-26.42,18.37-1.67,7,2.55,15,6.22,20.62,8.43,12.9,24,19.75,39,20.5,7.83.4,17.28-2.25,22.95-8,4.65-4.7,4.8-10.05-.54-14.08-16.81-12.72-38-17.76-58.39-21.34-10.74-1.89-21.55-3.52-32.11-6.27-2.71-.7-5.36-1.63-8.06-2.35s1.16.3.87.55c.14.3.32.39.54.28s.36-.34,0-.82c.58-1.2-.48-5.68-.44-7.39a78.5,78.5,0,0,1,.92-9.67c2.54-16.72-36.59-10.51-38.81,4.16-1.67,11-3.89,27.87,8.07,33.6,11.13,5.34,24.55,7,36.59,9.13,22.1,3.82,42.7,6.73,60.39,20.11l22.42-22.06c-.12,0-4.23-.53-1.95-.09s-1.42-.46-1.87-.55c-2.59-.56.48.37-.92-.28-1.05-.49-2.08-1-3.09-1.57-3.7-2.11-5.65-3.85-8.7-8-2.53-3.41-2.88-6.05-4.46-10.42-1.66-4.6-12.21,9.76-6.59,7.3-2.41,1.05-2.05.88.24.14,2.8-.92-4.81.95.19,0,3.43-.64-1.51-.26.6-.14,1.31.07,2.62.09,3.94.19s2,.45.31,0c1.28.32,2.56.58,3.83.95.6.17,3.34,1.19,1.57.46A34.53,34.53,0,0,1,401.94,354c7.53,7.33,12.92,16.53,18,25.66,1.62,2.93,7.91,4,10.63,4.17a32.62,32.62,0,0,0,15.18-2.89c6.86-3.28,14.3-9.1,9.88-17.09Z" transform="translate(-24.26 -7.9)"/>
  <path class="cls-1" d="M307,308.93c-13.12-2.21-28.81-.28-40.39-7.93-5.23-3.46-8-7.5-10.17-13.31C254,281,251.5,276.31,244.91,273s-41.87,5.43-33.79,15.12a141.43,141.43,0,0,1,25.53,46.1,144.2,144.2,0,0,1,6,26c1.21,8.78.48,18.32,3.62,26.72,4.13,11.07,17.19,9.15,26.84,8.44a152.16,152.16,0,0,0,39-7.9c4.54-1.56,9-3.28,13.54-4.94,2.25-.76,2.27-.78.06,0,1.15-.35,2.31-.67,3.47-1-7,0,5.44-.07-1.13.15,1-.07,1.94-.1,2.91-.1q-2.7-.06.12.12c1.63.26,1.9.27.81,0,.92.22,1.82.47,2.71.77a19.11,19.11,0,0,1,8,5.53l11.07-12.66c-2.72,1.1-.74.5.93,0,2.19-.69-1.26.19-1.74.28l.38-.05-1.78.09c-1.2,0-2.4.07-3.6,0,1.9,0-1.57-.11-2.08-.15l-3.6-.27c-1.41-.13-2.84-.22-4.24-.41-.23,0-2.08-.62-1.21-.24-8.25-3.66-7.44-18.87-5.75-26,2.39-10,7.85-18.77,14-26.94,2.89-3.88,6.85-8,8-12.77,1.27-5.39.89-11.55,1.17-17.07l-37.43,12.13A75,75,0,0,1,333.9,320.7c4.87,6.62,7.21,14.07,10.83,21.32,3.82,7.62,9.44,11.84,17,15.46,5.94,2.86,12.28,4.74,17.65,8.65,6.48,4.72,18.46,1.49,25.14-1.23,2.66-1.08,17.37-8.07,11.07-12.66-6.07-4.43-13.15-6.92-20-9.95A24.46,24.46,0,0,1,382,328.56c-6.52-15.35-15.27-28.61-29.06-38.4-6-4.26-16.37-1.6-22.6.42-5.49,1.77-14.48,4.94-14.82,11.71-.27,5.26.49,11.69-2.34,16.34-3.43,5.63-8,10.66-11.54,16.27-6.78,10.74-11.42,23-10.13,35.92.56,5.63,2.44,11.63,6.44,15.82,4.75,5,12.39,5.75,18.86,6.33,17.33,1.58,34.71.45,51-6.12,3.61-1.45,16.33-7,11.07-12.66-13.85-14.9-39.63-11.44-57-6.35-5.74,1.68-11.35,3.72-17,5.8-2.25.84-4.5,1.68-6.77,2.46,4.36-1.49-2.74.72-3.56.9,3.92-.86-3.59.4-4.33.47,1.6-.18,1.28-.18-1,0l-3.87.24-3.87.21a7.66,7.66,0,0,1,4.33.8c.25-.49-1.71-4.67-1.91-5.51-2.1-8.65-1.68-17.85-3.09-26.64a145.07,145.07,0,0,0-6.66-25.86,153.49,153.49,0,0,0-26.86-46.48l-33.79,15.13c3.15,1.57,4.62,10.61,6.57,14.19,3.37,6.2,8.35,10.52,14.54,13.74,14.9,7.74,31.68,6.61,47.79,9.33,8.72,1.47,20.33-2.11,27.32-7.32,1.94-1.44,5-3.92,4.27-6.71s-4.82-3.31-7-3.69Z" transform="translate(-24.26 -7.9)"/>
  <g>
    <path class="cls-1" d="M398.54,359.61a27,27,0,0,0,5.83,24.68c7.62,8.49,20.16,11.54,27.14,20.56a41.18,41.18,0,0,0,19.71-50.29c-2.09-5.87-5.66-11.39-10.86-14.82-3.84-2.54-8.36-3.83-12.86-4.77-5.72-1.2-11.54-1.9-17.34-2.6l-45.81-5.52" transform="translate(-24.26 -7.9)"/>
    <path class="cls-1" d="M379.27,362.21c-2.79,11.6.59,24,9.65,32,7.94,7,17.9,9.9,24.6,18.07,2.74,3.34,9,3.09,12.75,2.83A41,41,0,0,0,443.34,410c12.76-7,23.63-18.31,27.82-32.49,4-13.42,1.61-28.86-7.15-39.9-9.66-12.17-27.62-13.53-41.89-15.26l-45.81-5.52c-9.23-1.11-20.12,1.11-27.32,7.32-5.68,4.9-4.89,11.72,3.41,12.72l39.12,4.71c6.42.78,12.86,1.45,19.23,2.52,5.27.88,9.92,1.46,14.09,4.9,7.87,6.51,10.51,19,8.93,28.65a34,34,0,0,1-5.71,14.49,19,19,0,0,1-3.66,4.28,33.85,33.85,0,0,1-3,2.45c2.34-1.66-1.07.48-1.71.83l29.82-2.23c-6-7.32-15.38-11-22.4-16.29-7.72-5.83-11.6-14.57-9.29-24.17,3.17-13.2-35.53-7.32-38.54,5.2Z" transform="translate(-24.26 -7.9)"/>
  </g>
  <path class="cls-1" d="M380.56,357.8,343,260.9c-3-7.67-15.72-6.16-21.88-4.36-7,2-17,6.13-16.76,14.71q.69,28.86-.59,57.69c-.41,9.08-.08,18.94-1.89,27.87-1.31,6.51-3,.44,8.1-2.73q4-.78.56-.33c2-.11,2.31-.18,1-.19q-1.77-.09.39.12c-1-.15-2.07-.34-3.1-.58-1.7-.44-2-.52-1-.23-1-.37-1.95-.78-2.9-1.23-7-3.31-11.62-9.78-15.84-16.1-5.38-8.05-10.6-16.21-15.9-24.32l-32.48-49.73-35.89,15.05c27.73,33.84,78.2,54.95,86.52,101.89l22-15.75c2-.14.57,0-.6,0-1.52,0-3,0-4.57,0-1.21,0-2.43-.09-3.64-.17-3.3-.2,3.67.58-2.06-.18a102.45,102.45,0,0,1-16-3.51c-6-1.79-14,.25-19.45,2.58-3.59,1.52-11.47,5.42-11.71,10.28a38.4,38.4,0,0,1-2.3,11.66,21.24,21.24,0,0,1-1.8,3.64c-.55.9-1.15,1.78-1.78,2.63-1.15,1.34-1.35,1.64-.6.89L282.14,386c.56.75-1.76.11.22-.93-1,.53-2.21,2.19-3.24,2.85a16.9,16.9,0,0,1-6.48,2.51q-2.46.46.35,0c1.47-.11,2.94-.32,4.4-.46q10.25-1,20.51-1.75c7.17-.5,8.94-.59,16.66-.88q10.28-.39,20.57-.46A667.84,667.84,0,0,1,414,391a37.41,37.41,0,0,0,21.63-3.68c3.89-2,11-6.44,9.54-11.89a42.35,42.35,0,0,1,9.2-39.83L417,340.47a230.09,230.09,0,0,1,8.15,43.14l26.86-16a281.4,281.4,0,0,1-67.1-9.16c-8.73-2.23-20.74,1.37-27.33,7.32-6.23,5.63-4.18,11.49,3.62,13.49a328.91,328.91,0,0,0,75.72,10c8.46.14,27.93-4.35,26.87-16a230.19,230.19,0,0,0-8.15-43.15c-1.76-6.06-11.92-6.09-16.65-5.39-7.89,1.16-15.31,4.18-20.64,10.23a55.72,55.72,0,0,0-11.9,50.86l31.18-15.58a712,712,0,0,0-103.12-4.67c-17.62.53-35.24,1.63-52.78,3.43-11,1.13-22.69,3.69-31.27,11.09-6.42,5.54-9.58,13.72-4.24,21,2.94,4,11.15,3.55,15.27,3,5.91-.73,13.9-2.95,18.14-7.49,7.87-8.4,13.59-18.15,14.16-29.9l-31.16,12.86c14.77,4.44,30,5.27,45.28,4.23,6.64-.45,23.7-6.12,22-15.75-8.76-49.39-60.2-71.11-89.27-106.58-8-9.75-44.51,1.86-35.89,15.05l29.77,45.59,15.16,23.21c4.27,6.54,8.44,13.45,14.55,18.48,15.77,13,38.74,14.37,57.37,7.18,10.08-3.89,18.13-11.05,19.26-22.12.87-8.56,1.15-17.23,1.52-25.82q1.37-31.06.58-62.16l-38.64,10.35,37.58,96.9c3,7.67,15.72,6.16,21.87,4.36,4.65-1.36,19.73-7.07,16.77-14.71Z" transform="translate(-24.26 -7.9)"/>
  <path class="cls-1" d="M350.48,190.32a15.17,15.17,0,0,0-4.77-9.91c-3.39-3.39-19.25.44-18.7,6.09q1.65,17,4.35,33.84c.82,5,1.17,10.73,2.83,15.55,1.51,4.36,5,5.44,9.35,5.27,4-.17,13.3-1.92,13.67-7.15a133.53,133.53,0,0,0,.22-14.29l-19.32,5.18a1.63,1.63,0,0,1-.25,2.07l18.5-2.92a283.2,283.2,0,0,1-8.74-41.24L328.3,188l.89,5.16c.86,5.05,20.31.65,19.31-5.17l-.88-5.16c-.86-5.06-20.11-.68-19.32,5.17a281.64,281.64,0,0,0,8.75,41.24c.77,2.67,6.24,2,8.06,1.73,3.51-.54,8.06-1.83,10.44-4.65a7,7,0,0,0,1.88-6.58c-1.19-5.31-19.54-.49-19.32,5.18a133.57,133.57,0,0,1-.22,14.29l13.66-7.14q3.46.87,2-1.34a24.1,24.1,0,0,1-.65-3.06c-.38-1.91-.71-3.83-1-5.75q-1.19-6.74-2.18-13.48-2-13.5-3.31-27.1l-18.71,6.08a11.9,11.9,0,0,1,3.54,8.1c.37,4.68,19.8,1,19.32-5.18Z" transform="translate(-24.26 -7.9)"/>
  <path class="cls-1" d="M394.76,322.83A192.76,192.76,0,0,0,432.88,342l9-13.38c-4.48-.1-8.25-2.41-12.29-4.15a95.09,95.09,0,0,0-13.74-4.69,113.86,113.86,0,0,0-29.92-3.43l-1.77,14a182.2,182.2,0,0,1,25.9,1.1q6.59.76,13.12,2a40.09,40.09,0,0,1,5.57,1.12,9.76,9.76,0,0,1,1.38.47c.62.44.6.4,0-.1l17.24-6.29a94.15,94.15,0,0,0-45.18-16.32l-1.62,13.45c3.9-1,11.16,4.28,15.21,6.59,7.47,4.26,14.68,7.07,23.38,7.06s15.75-11.55,4.25-13.91c-4.3-.88-8.18-5.06-11.54-7.63-4.56-3.49-9.46-6.29-15.16-7.39a34.62,34.62,0,0,0-32.32,11.39c-4,4.69-.35,8.81,4.7,9.71,10.15,1.8,20.39,3.33,30.47,5.44,5.81,1.21,13.58,3.18,16.4,9.07l7.91-9.1c-4.84,1.08-10.15-1-14.7-2.47-5.57-1.82-11.08-3.63-16.81-4.91a125.58,125.58,0,0,0-37-2.6c-4.16.32-10.16,3-10.66,7.74s5.13,6.5,8.89,6.21a99.13,99.13,0,0,1,36.8,3.95c12.45,3.83,23.77,8.08,37,5.12,3.09-.7,9.93-4.9,7.92-9.11-4.47-9.34-13-14-22.79-16.4-12-3-24.47-4.64-36.66-6.81l4.7,9.72c4.25-5.05,9.21-3.68,14.12-.22,7.27,5.11,13,10.32,22,12.17l4.25-13.92c-6.23,0-13-6-18.26-8.74-8.2-4.29-16.43-6.29-25.59-4-3.25.81-7.68,3.51-8,7.28s3.16,5.88,6.42,6.18a76.34,76.34,0,0,1,37,13.5c5.59,3.88,15.65.34,17.24-6.28,2.88-12.05-18-13.66-25.35-14.8a211.37,211.37,0,0,0-38.37-2.19c-4.15.12-10.17,3.12-10.66,7.74-.54,5,5.15,6.26,8.89,6.21a81.46,81.46,0,0,1,25.74,3.87c8.37,2.67,16.28,8.13,25.25,8.32,4.41.1,9.46-1,12-5,2.18-3.44.79-6.94-3.05-8.36a172.49,172.49,0,0,1-34.39-17.34c-4.07-2.65-10.12-1.59-13.84,1.21-3.15,2.36-5.14,7.2-1.08,9.85Z" transform="translate(-24.26 -7.9)"/>
  <path class="cls-1" d="M326.89,187.43c1,9.3,2.05,18.94,6.28,27.43,2,3.93,5.37,7.16,7,11.2,1.47,3.58-1.13,7.6,1.94,10.4s12-.34,14.71-1.85c8.43-4.63,9-11,4.06-18.86-3.15-5-21.13,2.3-19.32,5.18a21,21,0,0,1,3.28,6.85c.19,1,0,1.86.06,2.77.16,1.34-2.1,2.53.66,1l14.71-1.85c-1.12-1-.15-3.3-.08-4.59a10.14,10.14,0,0,0-1.37-5.58c-2.14-3.94-5.18-7.16-7-11.31-3.67-8.15-4.66-17.19-5.6-26-.44-4.08-19.91-.3-19.32,5.18Z" transform="translate(-24.26 -7.9)"/>
  <path class="cls-1" d="M389.49,323.31c13.53,4.14,29.08,9,36.48,22.19,3.18,5.65,21.62-1.09,19.32-5.17-8.36-14.86-24.73-20.72-40.18-25.45-4.35-1.33-9.71,0-13.6,2.14-2,1.08-6.43,5-2,6.29Z" transform="translate(-24.26 -7.9)"/>
  <path class="cls-1" d="M260.52,420.64a120.43,120.43,0,0,1,10,33c.33,2.2,10.06.11,9.65-2.59-1-6.5-12.07-16.95-6.62-23.47L267.14,430l.67,0-2.49-.41c3,1.7,2.76,7.29,3.22,10.36l2.06,13.49c.33,2.2,9.93.12,9.66-2.59L278,428.49c-.22-2.23-9.47-.05-9.66,2.59a58.3,58.3,0,0,0,1.94,19.76c.66,2.41,9.68,0,9.66-2.59-.08-8.69-.79-18.56-8.55-24-1.77-1.23-9.53.19-9.37,3a51.37,51.37,0,0,0,2.38,13c.75,2.36,10.09-.07,9.66-2.59L256.92,337c-.38-2.24-10.11-.07-9.66,2.58l17.17,100.63,9.66-2.59a51.37,51.37,0,0,1-2.38-12.94l-9.37,3c7.44,5.18,7.89,14.89,8,23.17l9.66-2.59A58.3,58.3,0,0,1,278,428.49l-9.66,2.59,2.23,22.3,9.66-2.59-1.76-11.57c-.49-3.17-.48-7.11-1.62-10.12-1.54-4.07-5.89-3.88-9.41-2.51-12.25,4.74,2,20,3.09,27.06l9.65-2.59a119.89,119.89,0,0,0-10-33c-1.2-2.55-10.55.69-9.66,2.58Z" transform="translate(-24.26 -7.9)"/>
</svg>
